<svg width="257" height="81" viewBox="0 0 257 81" fill="none" xmlns="http://www.w3.org/2000/svg">
<path d="M14.5316 46.5593C14.8058 47.5846 15.0343 49.0293 15.3085 50.8469C15.2628 50.9401 15.2171 50.9401 15.1714 50.9401C15.1257 50.9401 15.0343 50.8935 14.9886 50.8469C14.3489 49.8216 13.8005 49.0759 13.2064 48.5167C12.6124 47.9574 12.064 47.6312 11.5156 47.3982C10.9673 47.1651 9.96195 47.0719 8.59104 47.0719C7.26582 47.0719 6.26049 47.1651 5.48364 47.305C5.39225 47.3982 5.39225 47.5846 5.39225 47.8176C5.39225 47.8642 5.39225 48.004 5.34655 48.1438C5.25516 48.8895 5.20946 50.8469 5.20946 54.0626C5.20946 54.2024 5.20946 54.3888 5.25516 54.6219C5.94061 54.6685 6.39758 54.6685 6.67176 54.6685C7.81419 54.6685 8.63673 54.4821 9.1394 54.1558C9.64207 53.8296 10.099 53.0839 10.4646 51.9188C10.5103 51.7324 10.6017 51.6392 10.7388 51.6392C10.9216 51.6392 11.013 51.779 11.013 52.0586L10.9673 52.6179C10.8759 53.3635 10.8759 54.1092 10.8759 54.8549C10.8759 56.1132 10.8759 57.2317 10.9216 58.2104C10.9216 58.5366 10.8302 58.6765 10.6931 58.6765C10.556 58.6765 10.5103 58.5833 10.4646 58.3502C10.2818 57.2783 9.87055 56.486 9.27649 56.02C8.68243 55.554 7.35722 55.3209 5.34655 55.3209C5.30085 55.9734 5.30085 57.0453 5.30085 58.5366C5.30085 60.4474 5.34655 61.7058 5.48364 62.2184C5.62073 62.7311 5.94061 63.1505 6.44328 63.4767C6.94595 63.803 7.81419 63.9428 9.04801 63.9428C12.521 63.9428 14.8058 62.7311 15.8112 60.261C15.9483 59.9814 16.0853 59.795 16.1767 59.795C16.3138 59.795 16.4052 59.8882 16.4052 60.0746C16.4052 60.1678 16.4052 60.3076 16.3595 60.4474C16.3138 60.6339 16.1767 61.2863 15.9483 62.4048C15.9026 62.6378 15.7198 63.3369 15.4456 64.5486H9.82486C9.00231 64.5486 7.81419 64.502 6.26049 64.4554C4.70679 64.4088 3.29018 64.3622 2.10206 64.3622C0.91394 64.3622 0.274182 64.3156 0.228485 64.269C0.045697 64.2224 0 64.1758 0 64.1292C0 63.9428 0.137091 63.8496 0.45697 63.8496C1.4623 63.8496 2.10206 63.5699 2.42194 63.0573C2.74182 62.498 2.87891 61.1931 2.87891 59.1425V56.3462L2.92461 53.7364C2.92461 53.2237 2.87891 52.1984 2.83321 50.7071C2.74182 49.1691 2.69612 48.3303 2.65043 48.1438C2.60473 47.9108 2.46764 47.7244 2.23915 47.4914C2.01067 47.305 1.508 47.1185 0.731152 46.8855C0.502667 46.8389 0.365576 46.7457 0.365576 46.6059C0.365576 46.4195 0.502667 46.3729 0.822546 46.3729L3.56437 46.5127C4.524 46.5593 6.90025 46.5593 10.6931 46.5593C13.2064 46.5593 14.486 46.5593 14.5316 46.5593Z" fill="white"/>
<path d="M22.3001 46.4195C23.2141 48.4235 24.0366 50.1944 24.8135 51.7324C25.7731 53.55 26.5043 55.0879 27.0069 56.2996C27.5096 57.5114 28.1494 58.7231 28.8348 59.8882C30.7084 56.7657 32.8562 52.245 35.2781 46.3729H40.6246C40.8074 46.4195 40.8988 46.4661 40.8988 46.6059C40.8988 46.7457 40.8074 46.8389 40.579 46.8389C39.6193 46.9321 38.9796 47.1185 38.6597 47.3982C38.3398 47.7244 38.157 48.2371 38.0656 48.9361C37.9742 49.6352 37.9285 50.9867 37.8371 52.9441C37.7457 54.9015 37.7457 56.5327 37.7457 57.8376C37.7457 60.3542 37.7457 61.799 37.7914 62.2184C37.8371 62.6379 37.9742 62.9641 38.2484 63.1971C38.5226 63.4301 39.0252 63.6166 39.8021 63.7098C40.0306 63.7564 40.122 63.8496 40.122 63.9894C40.122 64.1292 39.9849 64.1758 39.7107 64.1758H34.5012H33.1303C32.8105 64.1758 32.6734 64.0826 32.6734 63.9428C32.6734 63.803 32.7648 63.7564 32.9932 63.7098C33.7244 63.6166 34.2271 63.4767 34.5012 63.2903C34.7297 63.1039 34.9125 62.7777 35.0496 62.3116C35.1867 61.8456 35.2324 60.6805 35.2324 58.7697L35.5066 52.1984L35.6437 48.9361C35.6437 48.7031 35.598 48.5633 35.5523 48.5633C35.4609 48.5633 35.3695 48.6565 35.2781 48.7963L32.6277 54.1558C30.9369 57.6046 29.8858 59.795 29.4746 60.7271L28.652 62.7777C28.3778 63.4301 28.2408 63.7564 28.1951 63.803C28.1494 63.8496 28.058 63.8962 28.0123 63.8962C27.9209 63.8962 27.8295 63.7564 27.7381 63.5233C27.5553 62.9641 26.7328 61.1465 25.2705 58.1172C24.4936 56.3928 23.534 54.4355 22.4829 52.245C21.3862 50.0546 20.7921 48.8895 20.7007 48.7963C20.6094 48.7031 20.5637 48.6565 20.518 48.6565C20.4266 48.6565 20.3809 48.7497 20.3809 48.9827L20.2438 57.2783L20.1981 60.028C20.1981 61.4727 20.3809 62.4514 20.7921 62.8709C21.2034 63.3369 21.7518 63.5233 22.4829 63.5233C22.9399 63.5233 23.1684 63.6166 23.1684 63.803C23.1684 63.9428 23.077 64.036 22.8485 64.036H22.5743H21.7061H19.8325C19.01 64.036 17.9589 64.0826 16.6337 64.1758C16.5423 64.0826 16.4509 64.036 16.4509 63.9428C16.4509 63.7564 16.588 63.6632 16.9079 63.6632C17.8218 63.6166 18.4616 63.3369 18.8729 62.7777C19.2841 62.2184 19.5126 60.9135 19.5126 58.9095L19.4669 56.4861L19.6497 50.6605C19.6497 49.2157 19.4212 48.2371 19.01 47.7244C18.5987 47.2118 18.0046 46.8855 17.1821 46.7923C16.8622 46.7457 16.6794 46.6525 16.6794 46.5127C16.6794 46.3729 16.8165 46.2797 17.045 46.2797C17.1821 46.2797 17.3192 46.2797 17.5477 46.2797L22.3001 46.4195Z" fill="white"/>
<path d="M46.0169 55.6938C46.0169 56.1132 45.9712 56.7191 45.9255 57.5579C45.8798 57.9774 45.8798 58.3502 45.8798 58.7697C45.8798 59.0959 45.8798 59.7483 45.9255 60.7736C45.9712 61.7989 46.0169 62.4514 46.1083 62.6844C46.1997 62.9175 46.4282 63.1971 46.7481 63.4301C47.068 63.6631 47.3878 63.8029 47.7534 63.8029C48.1647 63.8495 48.3932 63.9428 48.3932 64.0826C48.3932 64.2224 48.3475 64.269 48.2104 64.3156C48.0733 64.3622 47.6163 64.3622 46.7938 64.3622H43.0923C42.0413 64.3622 41.4929 64.3622 41.4472 64.3156C41.4015 64.269 41.3558 64.2224 41.3558 64.1292C41.3558 63.9894 41.5386 63.8962 41.8585 63.8029C42.4526 63.6631 42.8638 63.4301 43.138 63.1505C43.4122 62.8709 43.5036 62.2184 43.595 61.2863C43.6407 60.3076 43.6864 59.1891 43.6864 57.9308L43.6407 54.2956L43.6864 50.3342C43.6864 48.9361 43.595 48.0506 43.4122 47.6778C43.2294 47.3049 42.8638 47.0253 42.3155 46.9321C41.7214 46.8389 41.4472 46.6991 41.4472 46.5127C41.4472 46.3728 41.5843 46.2796 41.8585 46.2796H44.5089L48.8044 46.233C51.6377 46.233 53.5112 46.6991 54.4709 47.5846C55.4305 48.4701 55.9332 49.5886 55.9332 50.9401C55.9332 52.5246 55.2934 53.7364 54.0139 54.5286C52.7344 55.3209 50.8151 55.7404 48.2561 55.7404C47.5706 55.7404 46.8395 55.7404 46.0169 55.6938ZM46.0169 55.1345C47.3421 55.1811 48.0733 55.1811 48.2561 55.1811C49.17 55.1811 50.0383 55.0413 50.8151 54.7151C51.6377 54.3888 52.2317 53.8296 52.5973 52.9907C52.9629 52.1518 53.1457 51.3595 53.1457 50.5206C53.1457 49.4953 52.7801 48.6099 52.0946 47.9108C51.4092 47.2117 50.1754 46.8389 48.3932 46.8389C47.4792 46.8389 46.6567 46.9321 45.9712 47.1185C45.9712 47.4448 45.9712 47.6312 45.9712 47.7244L46.0169 50.8935L45.9712 54.249C46.0169 54.4354 46.0169 54.7151 46.0169 55.1345Z" fill="white"/>
<path d="M57.4411 46.2797L59.9087 46.3263L63.6559 46.2797C64.1129 46.2797 64.3414 46.3729 64.3414 46.5593C64.3414 46.6991 64.2043 46.7923 63.9758 46.8389C62.9704 46.9787 62.3764 47.3516 62.1022 47.9574C61.8737 48.5633 61.7366 50.8003 61.7366 54.6685C61.7366 56.0666 61.7823 57.6978 61.828 59.4687C61.9194 61.2397 61.9651 62.3116 62.0565 62.6379C62.1479 62.9641 62.3307 63.2903 62.5592 63.4767C62.7876 63.7098 63.2903 63.8496 63.9758 63.9428C64.2043 63.9894 64.2957 64.036 64.2957 64.2224C64.2957 64.4088 64.2043 64.4554 63.9758 64.4554L60.6399 64.4088L57.8067 64.4554C57.4868 64.4554 57.3497 64.3622 57.3497 64.1758C57.3497 63.9894 57.4868 63.8962 57.7153 63.8962C58.5378 63.8962 59.0405 63.6165 59.1776 63.0573C59.3147 62.498 59.4061 60.7737 59.4061 57.791C59.4061 54.9481 59.3604 52.6179 59.3147 50.8469C59.269 49.0759 59.1319 48.004 58.8577 47.6312C58.6292 47.2584 58.1722 46.9787 57.4868 46.8855C57.2583 46.8389 57.1212 46.7457 57.1212 46.5593C57.1669 46.3729 57.2583 46.2797 57.4411 46.2797Z" fill="white"/>
<path d="M75.7199 55.1811C76.9538 55.7404 77.822 56.2996 78.3247 56.9055C78.8273 57.5113 79.1929 58.4434 79.4214 59.7017C79.7413 61.3329 80.1525 62.4514 80.6552 63.0107C81.2036 63.5699 81.889 63.8962 82.7573 63.8962C82.9858 63.8962 83.1228 63.9894 83.1228 64.1758C83.1228 64.3156 82.9858 64.4088 82.7116 64.4088C80.1982 64.4088 78.6902 64.3156 78.1419 64.1758C77.5935 63.9894 77.2279 63.0573 76.9538 61.3795C76.7253 59.7484 76.4511 58.5366 76.1769 57.7444C75.9027 56.9987 75.4914 56.3928 74.8974 55.9734C74.3033 55.5539 73.4351 55.3675 72.2013 55.3675C71.7443 55.3675 71.1959 55.4141 70.6019 55.5073C70.5562 56.0666 70.5562 56.6725 70.5562 57.2783C70.5562 59.6085 70.6019 61.1465 70.6476 61.8456C70.6933 62.5446 70.9218 63.0573 71.1959 63.3369C71.4701 63.6165 72.0642 63.8029 72.7953 63.8496C73.1152 63.8496 73.298 63.9428 73.298 64.0826C73.298 64.269 73.1152 64.3622 72.7039 64.3622H66.0322C65.6666 64.3622 65.4381 64.269 65.4381 64.0826C65.4381 63.9428 65.5752 63.8496 65.8951 63.8496C66.5805 63.8496 67.0375 63.7563 67.3117 63.5233C67.5859 63.2903 67.7687 62.9641 67.9514 62.5446C68.0885 62.0786 68.1799 61.2863 68.1799 60.1212L68.1342 57.3249V53.0839C68.1342 50.8935 68.0885 49.4488 67.9971 48.7497C67.9058 48.0506 67.723 47.5846 67.4945 47.3515C67.266 47.1185 66.6719 46.9321 65.8037 46.7923C65.6209 46.7457 65.5295 46.6991 65.5295 46.5593C65.5295 46.4195 65.7123 46.3262 66.0779 46.3262L74.0291 46.1398C76.2226 46.1398 77.822 46.5593 78.8273 47.4448C79.8327 48.2836 80.2896 49.3555 80.2896 50.6139C80.2896 51.4061 80.1068 52.1052 79.6956 52.7577C79.2843 53.4101 78.8273 53.8762 78.279 54.1558C77.7763 54.4354 76.9081 54.8083 75.7199 55.1811ZM70.6019 54.8083C72.3384 54.7617 73.6179 54.6685 74.4861 54.4354C75.3544 54.2024 76.0855 53.783 76.6796 53.0373C77.2736 52.3382 77.5935 51.4994 77.5935 50.5207C77.5935 49.4954 77.2736 48.6099 76.5882 47.8176C75.9027 47.0719 74.8517 46.6525 73.3437 46.6525C72.5211 46.6525 71.6529 46.7457 70.6476 46.9787C70.5562 49.4954 70.4648 51.4994 70.4648 52.9907C70.5105 53.5033 70.5562 54.1092 70.6019 54.8083Z" fill="white"/>
<path d="M97.1518 46.5593C97.426 47.5846 97.6544 49.0293 97.9286 50.8469C97.8829 50.9401 97.8372 50.9401 97.7915 50.9401C97.7458 50.9401 97.6544 50.8935 97.6087 50.8469C96.969 49.8216 96.4206 49.0759 95.8266 48.5167C95.2325 47.9574 94.6841 47.6312 94.1358 47.3982C93.5874 47.1651 92.5821 47.0719 91.2112 47.0719C89.8859 47.0719 88.8806 47.1651 88.1038 47.3049C88.0124 47.3982 88.0124 47.5846 88.0124 47.8176C88.0124 47.8642 88.0124 48.004 87.9667 48.1438C87.8753 48.8895 87.8296 50.8469 87.8296 54.0626C87.8296 54.2024 87.8296 54.3888 87.8753 54.6219C88.5607 54.6685 89.0177 54.6685 89.2919 54.6685C90.4343 54.6685 91.2569 54.482 91.7595 54.1558C92.2622 53.8296 92.7192 53.0839 93.0847 51.9188C93.1304 51.7324 93.2218 51.6392 93.3589 51.6392C93.5417 51.6392 93.6331 51.779 93.6331 52.0586L93.5874 52.6179C93.496 53.3635 93.496 54.1092 93.496 54.8549C93.496 56.1132 93.496 57.2317 93.5417 58.2104C93.5417 58.5366 93.4503 58.6765 93.3132 58.6765C93.1761 58.6765 93.1304 58.5832 93.0847 58.3502C92.9019 57.2783 92.4907 56.486 91.8966 56.02C91.3025 55.5539 89.9773 55.3209 87.9667 55.3209C87.921 55.9734 87.921 57.0453 87.921 58.5366C87.921 60.4474 87.9667 61.7057 88.1038 62.2184C88.2408 62.731 88.5607 63.1505 89.0634 63.4767C89.5661 63.8029 90.4343 63.9428 91.6681 63.9428C95.1411 63.9428 97.4259 62.731 98.4313 60.261C98.5684 59.9814 98.7055 59.795 98.7969 59.795C98.934 59.795 99.0253 59.8882 99.0253 60.0746C99.0253 60.1678 99.0253 60.3076 98.9797 60.4474C98.934 60.6338 98.7969 61.2863 98.5684 62.4048C98.5227 62.6378 98.3399 63.3369 98.0657 64.5486H92.445C91.6224 64.5486 90.4343 64.502 88.8806 64.4554C87.3269 64.4088 85.9103 64.3622 84.7222 64.3622C83.534 64.3622 82.8943 64.3156 82.8486 64.269C82.8029 64.2224 82.7572 64.1758 82.7572 64.1292C82.7572 63.9428 82.8943 63.8496 83.2142 63.8496C84.2195 63.8496 84.8593 63.5699 85.1791 63.0573C85.499 62.498 85.6361 61.1931 85.6361 59.1425V56.3462L85.6818 53.7364C85.6818 53.2237 85.6361 52.1984 85.5904 50.7071C85.5447 49.2157 85.499 48.3769 85.4076 48.1904C85.3619 47.9574 85.2248 47.771 84.9964 47.5846C84.7679 47.3982 84.2652 47.1651 83.4884 46.9787C83.2599 46.9321 83.1228 46.7923 83.1228 46.6991C83.1228 46.5127 83.2599 46.4661 83.5797 46.4661L86.3216 46.6059C87.2812 46.6525 89.6575 46.6525 93.4503 46.6525C95.8266 46.5593 97.1061 46.5593 97.1518 46.5593Z" fill="white"/>
<path d="M110.358 46.4194L113.146 46.3728C116.665 46.3728 119.315 47.2583 121.097 48.9827C122.879 50.707 123.793 52.8975 123.793 55.5539C123.793 57.4181 123.382 59.0492 122.514 60.4474C121.646 61.8455 120.595 62.8708 119.269 63.5699C117.944 64.269 116.253 64.6418 114.106 64.6418C113.603 64.6418 113.009 64.5952 112.278 64.5486C110.952 64.4554 110.221 64.3622 110.039 64.3622C107.114 64.3622 105.377 64.4088 104.829 64.4554C104.555 64.4554 104.372 64.3622 104.372 64.2224C104.372 64.1291 104.418 64.0359 104.555 63.9893C104.646 63.9427 105.012 63.8961 105.56 63.8495C106.291 63.7563 106.794 63.4767 107.068 62.964C107.342 62.498 107.525 60.96 107.617 58.4434L107.845 51.1731C107.845 50.3342 107.799 49.5419 107.662 48.7497C107.571 47.9574 107.388 47.4447 107.16 47.2583C106.931 47.0719 106.566 46.8855 106.017 46.7923C105.652 46.7457 105.469 46.6524 105.469 46.466C105.469 46.2796 105.56 46.1864 105.743 46.1864C105.926 46.1864 106.474 46.233 107.388 46.3262C108.256 46.3728 109.262 46.4194 110.358 46.4194ZM109.856 59.6551C109.856 60.8668 109.947 61.7057 110.084 62.2184C110.221 62.731 110.587 63.1504 111.09 63.4767C111.592 63.8029 112.415 63.9893 113.557 63.9893C115.202 63.9893 116.527 63.6165 117.533 62.8242C118.538 62.0319 119.315 61.0066 119.909 59.7017C120.457 58.3968 120.777 56.9987 120.777 55.5539C120.777 53.3635 120.138 51.4061 118.812 49.6351C117.533 47.8642 115.476 46.9787 112.735 46.9787C111.501 46.9787 110.815 47.0253 110.587 47.1185C110.404 47.2117 110.267 47.4447 110.267 47.8642C110.267 48.237 110.221 48.8429 110.176 49.7749C110.084 51.1265 110.039 52.1518 109.993 52.8975L109.856 56.6724C109.901 58.3968 109.856 59.4221 109.856 59.6551Z" fill="white"/>
<path d="M124.981 46.4195H131.699C132.064 46.4195 132.293 46.5127 132.293 46.6525C132.293 46.8389 132.156 46.9321 131.881 46.9321C131.242 46.9787 130.785 47.1651 130.465 47.4448C130.145 47.7244 129.917 48.2371 129.779 48.9827C129.642 49.7284 129.551 51.313 129.551 53.7364C129.551 56.6725 129.642 58.6765 129.779 59.795C129.962 60.9135 130.465 61.799 131.333 62.498C132.201 63.1971 133.389 63.4767 134.897 63.4767C136.497 63.4767 137.685 63.1505 138.508 62.5446C139.33 61.9388 139.878 61.0067 140.107 59.795C140.335 58.5833 140.473 55.9734 140.473 51.9188C140.473 49.8216 140.244 48.4701 139.833 47.8176C139.421 47.1651 138.782 46.8389 137.959 46.8389C137.639 46.8389 137.457 46.7457 137.457 46.5593C137.457 46.3729 137.685 46.2797 138.096 46.2797H143.489C143.717 46.2797 143.854 46.3729 143.854 46.5593C143.854 46.6991 143.763 46.7457 143.58 46.7923C142.894 46.8855 142.392 47.1185 142.072 47.4448C141.752 47.771 141.524 48.3769 141.432 49.2624C141.341 50.1478 141.295 51.4528 141.295 53.1771C141.295 55.3209 141.204 57.1385 141.067 58.6299C140.929 60.1212 140.564 61.2397 140.061 61.9854C139.559 62.7311 138.782 63.3369 137.731 63.7564C136.68 64.2224 135.4 64.4554 133.892 64.4554C132.338 64.4554 131.013 64.2224 129.916 63.7098C128.82 63.1971 128.089 62.5446 127.677 61.7058C127.266 60.8669 127.083 59.6086 127.083 57.9308L127.129 54.1092C127.129 50.7537 126.992 48.6565 126.718 47.9108C126.444 47.1651 125.849 46.7923 124.89 46.7457C124.57 46.7457 124.433 46.6525 124.433 46.5127C124.433 46.5127 124.616 46.4195 124.981 46.4195Z" fill="white"/>
<path d="M159.802 55.1811C161.036 55.7404 161.905 56.2996 162.407 56.9055C162.91 57.5113 163.275 58.4434 163.504 59.7017C163.824 61.3329 164.235 62.4514 164.738 63.0107C165.286 63.5699 165.972 63.8962 166.84 63.8962C167.068 63.8962 167.205 63.9894 167.205 64.1758C167.205 64.3156 167.068 64.4088 166.794 64.4088C164.281 64.4088 162.773 64.3156 162.224 64.1758C161.676 63.9894 161.31 63.0573 161.036 61.3795C160.808 59.7484 160.534 58.5366 160.259 57.7444C159.985 56.9987 159.574 56.3928 158.98 55.9734C158.386 55.5539 157.518 55.3675 156.284 55.3675C155.827 55.3675 155.278 55.4141 154.684 55.5073C154.639 56.0666 154.639 56.6725 154.639 57.2783C154.639 59.6085 154.684 61.1465 154.73 61.8456C154.776 62.5446 155.004 63.0573 155.278 63.3369C155.553 63.6165 156.147 63.8029 156.878 63.8496C157.198 63.8496 157.381 63.9428 157.381 64.0826C157.381 64.269 157.198 64.3622 156.786 64.3622H150.115C149.749 64.3622 149.521 64.269 149.521 64.0826C149.521 63.9428 149.658 63.8496 149.978 63.8496C150.663 63.8496 151.12 63.7563 151.394 63.5233C151.668 63.2903 151.851 62.9641 152.034 62.5446C152.171 62.0786 152.262 61.2863 152.262 60.1212L152.217 57.3249V53.0839C152.217 50.8935 152.171 49.4488 152.08 48.7497C151.988 48.0506 151.805 47.5846 151.577 47.3515C151.349 47.1185 150.754 46.9321 149.886 46.7923C149.703 46.7457 149.612 46.6991 149.612 46.5593C149.612 46.4195 149.795 46.3262 150.16 46.3262L158.112 46.1398C160.305 46.1398 161.905 46.5593 162.91 47.4448C163.915 48.2836 164.372 49.3555 164.372 50.6139C164.372 51.4061 164.189 52.1052 163.778 52.7577C163.367 53.4101 162.91 53.8762 162.362 54.1558C161.859 54.4354 160.991 54.8083 159.802 55.1811ZM154.684 54.8083C156.421 54.7617 157.7 54.6685 158.569 54.4354C159.437 54.2024 160.168 53.783 160.762 53.0373C161.356 52.3382 161.676 51.4994 161.676 50.5207C161.676 49.4954 161.356 48.6099 160.671 47.8176C159.985 47.0719 158.934 46.6525 157.426 46.6525C156.604 46.6525 155.735 46.7457 154.73 46.9787C154.639 49.4954 154.547 51.4994 154.547 52.9907C154.593 53.5033 154.639 54.1092 154.684 54.8083Z" fill="white"/>
<path d="M181.234 46.5593C181.508 47.5846 181.737 49.0293 182.011 50.8469C181.965 50.9401 181.92 50.9401 181.874 50.9401C181.828 50.9401 181.737 50.8935 181.691 50.8469C181.051 49.8216 180.503 49.0759 179.909 48.5167C179.315 47.9574 178.767 47.6312 178.218 47.3982C177.67 47.1651 176.665 47.0719 175.294 47.0719C173.968 47.0719 172.963 47.1651 172.186 47.3049C172.095 47.3982 172.095 47.5846 172.095 47.8176C172.095 47.8642 172.095 48.004 172.049 48.1438C171.958 48.8895 171.912 50.8469 171.912 54.0626C171.912 54.2024 171.912 54.3888 171.958 54.6219C172.643 54.6685 173.1 54.6685 173.374 54.6685C174.517 54.6685 175.339 54.482 175.842 54.1558C176.345 53.8296 176.802 53.0839 177.167 51.9188C177.213 51.7324 177.304 51.6392 177.441 51.6392C177.624 51.6392 177.716 51.779 177.716 52.0586L177.67 52.6179C177.579 53.3635 177.579 54.1092 177.579 54.8549C177.579 56.1132 177.579 57.2317 177.624 58.2104C177.624 58.5366 177.533 58.6765 177.396 58.6765C177.259 58.6765 177.213 58.5832 177.167 58.3502C176.984 57.2783 176.573 56.486 175.979 56.02C175.385 55.5539 174.06 55.3209 172.049 55.3209C172.003 55.9734 172.003 57.0453 172.003 58.5366C172.003 60.4474 172.049 61.7057 172.186 62.2184C172.323 62.731 172.643 63.1505 173.146 63.4767C173.649 63.8029 174.517 63.9428 175.751 63.9428C179.224 63.9428 181.508 62.731 182.514 60.261C182.651 59.9814 182.788 59.795 182.879 59.795C183.016 59.795 183.108 59.8882 183.108 60.0746C183.108 60.1678 183.108 60.3076 183.062 60.4474C183.016 60.6338 182.879 61.2863 182.651 62.4048C182.605 62.6378 182.422 63.3369 182.148 64.5486H176.527C175.705 64.5486 174.517 64.502 172.963 64.4554C171.409 64.4088 169.993 64.3622 168.805 64.3622C167.617 64.3622 166.977 64.3156 166.931 64.269C166.885 64.2224 166.84 64.1758 166.84 64.1292C166.84 63.9428 166.977 63.8496 167.297 63.8496C168.302 63.8496 168.942 63.5699 169.262 63.0573C169.582 62.498 169.719 61.1931 169.719 59.1425V56.3462L169.764 53.7364C169.764 53.2237 169.719 52.1984 169.673 50.7071C169.627 49.2157 169.582 48.3769 169.49 48.1904C169.444 47.9574 169.307 47.771 169.079 47.5846C168.85 47.3982 168.348 47.1651 167.571 46.9787C167.342 46.9321 167.205 46.7923 167.205 46.6991C167.205 46.5127 167.342 46.4661 167.662 46.4661L170.404 46.6059C171.364 46.6525 173.74 46.6525 177.533 46.6525C179.909 46.5593 181.189 46.5593 181.234 46.5593Z" fill="white"/>
<path d="M200.747 52.1518C200.61 52.1518 200.518 52.012 200.381 51.7324C199.65 50.1012 198.691 48.7963 197.457 47.9108C196.269 47.0253 194.989 46.5593 193.618 46.5593C192.476 46.5593 191.425 46.8855 190.374 47.5846C189.323 48.2836 188.454 49.3555 187.815 50.8003C187.129 52.245 186.809 53.783 186.809 55.4141C186.809 57.7443 187.495 59.7483 188.866 61.4261C190.237 63.1039 191.927 63.9427 193.984 63.9427C194.715 63.9427 195.309 63.8495 195.857 63.6165C196.36 63.3835 196.863 63.0573 197.32 62.6378C197.777 62.2184 198.051 61.8921 198.142 61.6591C198.234 61.4261 198.279 60.9135 198.279 59.9814C198.279 58.49 198.096 57.5113 197.685 56.9987C197.274 56.5326 196.68 56.2996 195.812 56.2996H195.4C195.126 56.2996 194.989 56.2064 194.989 56.02C194.989 55.787 195.126 55.6937 195.4 55.6937L196.131 55.7403L199.147 55.6937L202.849 55.6005C203.077 55.6005 203.169 55.6937 203.169 55.8802C203.169 56.0666 203.032 56.1598 202.803 56.2064C202.255 56.253 201.798 56.3928 201.432 56.5792C201.067 56.7656 200.884 56.9987 200.793 57.2317C200.701 57.4647 200.655 57.8842 200.655 58.49C200.655 60.6338 200.61 61.7989 200.518 62.032C200.427 62.265 199.604 62.731 198.005 63.4767C196.451 64.2224 194.852 64.5952 193.253 64.5952C190.648 64.5952 188.363 63.7563 186.535 62.032C184.662 60.3076 183.748 58.1172 183.748 55.5073C183.748 53.6897 184.205 52.0586 185.073 50.6138C185.941 49.1691 187.175 48.004 188.683 47.2117C190.237 46.4194 191.79 46 193.344 46C194.852 46 196.451 46.4194 198.142 47.3049C198.645 47.5379 198.965 47.6778 199.147 47.6778C199.422 47.6778 199.65 47.5379 199.787 47.3049C199.924 47.0719 200.061 46.9787 200.153 46.9787C200.381 46.9787 200.473 47.2583 200.518 47.771C200.564 48.6099 200.701 49.8682 200.93 51.5925C200.93 51.6858 200.975 51.779 200.975 51.8256C201.021 52.0586 200.93 52.1518 200.747 52.1518Z" fill="white"/>
<path d="M211.257 46.0466H211.897C212.902 48.1438 214.273 51.7324 216.056 56.7657C217.198 60.028 217.975 61.9854 218.386 62.7311C218.797 63.4767 219.483 63.8962 220.442 63.9428C220.717 63.9894 220.899 64.0826 220.899 64.2224C220.899 64.3622 220.808 64.4088 220.671 64.4088H220.488C219.666 64.3156 218.615 64.3156 217.335 64.3156C215.37 64.3156 214.136 64.3622 213.588 64.4088C213.314 64.4088 213.177 64.3156 213.177 64.1758C213.177 64.036 213.268 63.9894 213.497 63.9428C214.273 63.8496 214.776 63.7564 215.096 63.5233C215.37 63.3369 215.553 63.0107 215.553 62.6378C215.553 62.265 215.279 61.2397 214.73 59.7018L213.953 57.3249C213.497 57.3249 211.394 57.3715 207.693 57.4181C206.779 59.9348 206.276 61.5659 206.276 62.2184C206.276 62.7777 206.505 63.1971 206.962 63.4767C207.419 63.7564 207.876 63.8962 208.333 63.9428C208.653 63.9894 208.835 64.0826 208.835 64.269C208.835 64.3622 208.79 64.4088 208.653 64.4554C207.236 64.4088 206.368 64.3622 206.048 64.3622C204.54 64.3622 203.535 64.3622 203.032 64.4088C202.758 64.4088 202.621 64.3156 202.621 64.1758C202.621 64.036 202.758 63.9428 202.986 63.8962C204.037 63.7564 204.814 63.0573 205.362 61.7524C205.911 60.4474 206.779 58.1638 207.921 54.8083C208.835 51.779 210.024 48.8429 211.257 46.0466ZM210.755 49.0293C209.932 50.7537 208.927 53.2703 207.83 56.5793C208.744 56.5326 209.429 56.5326 209.841 56.5326L213.634 56.5793C213.314 55.6472 212.857 54.3888 212.217 52.8043C211.44 50.9401 210.983 49.6818 210.755 49.0293Z" fill="white"/>
<path d="M231.135 55.1811C232.369 55.7404 233.238 56.2996 233.74 56.9055C234.243 57.5113 234.608 58.4434 234.837 59.7017C235.157 61.3329 235.568 62.4514 236.071 63.0107C236.619 63.5699 237.305 63.8962 238.173 63.8962C238.401 63.8962 238.538 63.9894 238.538 64.1758C238.538 64.3156 238.401 64.4088 238.127 64.4088C235.614 64.4088 234.106 64.3156 233.557 64.1758C233.009 63.9894 232.643 63.0573 232.369 61.3795C232.141 59.7484 231.867 58.5366 231.592 57.7444C231.318 56.9987 230.907 56.3928 230.313 55.9734C229.719 55.5539 228.851 55.3675 227.617 55.3675C227.16 55.3675 226.611 55.4141 226.017 55.5073C225.972 56.0666 225.972 56.6725 225.972 57.2783C225.972 59.6085 226.017 61.1465 226.063 61.8456C226.109 62.5446 226.337 63.0573 226.611 63.3369C226.886 63.6165 227.48 63.8029 228.211 63.8496C228.531 63.8496 228.714 63.9428 228.714 64.0826C228.714 64.269 228.531 64.3622 228.119 64.3622H221.448C221.082 64.3622 220.854 64.269 220.854 64.0826C220.854 63.9428 220.991 63.8496 221.311 63.8496C221.996 63.8496 222.453 63.7563 222.727 63.5233C223.001 63.2903 223.184 62.9641 223.367 62.5446C223.504 62.0786 223.595 61.2863 223.595 60.1212L223.55 57.3249V53.0839C223.55 50.8935 223.504 49.4488 223.413 48.7497C223.321 48.0506 223.138 47.5846 222.91 47.3515C222.682 47.1185 222.087 46.9321 221.219 46.7923C221.036 46.7457 220.945 46.6991 220.945 46.5593C220.945 46.4195 221.128 46.3262 221.493 46.3262L229.445 46.1398C231.638 46.1398 233.238 46.5593 234.243 47.4448C235.248 48.2836 235.705 49.3555 235.705 50.6139C235.705 51.4061 235.522 52.1052 235.111 52.7577C234.7 53.4101 234.243 53.8762 233.694 54.1558C233.238 54.4354 232.369 54.8083 231.135 55.1811ZM226.063 54.8083C227.8 54.7617 229.079 54.6685 229.947 54.4354C230.816 54.2024 231.547 53.783 232.141 53.0373C232.735 52.3382 233.055 51.4994 233.055 50.5207C233.055 49.4954 232.735 48.6099 232.049 47.8176C231.364 47.0719 230.313 46.6525 228.805 46.6525C227.982 46.6525 227.114 46.7457 226.109 46.9787C226.017 49.4954 225.926 51.4994 225.926 52.9907C225.972 53.5033 225.972 54.1092 226.063 54.8083Z" fill="white"/>
<path d="M243.565 46.4194L246.353 46.3728C249.871 46.3728 252.522 47.2583 254.304 48.9827C256.086 50.707 257 52.8975 257 55.5539C257 57.4181 256.589 59.0492 255.721 60.4474C254.852 61.8455 253.801 62.8708 252.476 63.5699C251.151 64.269 249.46 64.6418 247.312 64.6418C246.81 64.6418 246.216 64.5952 245.484 64.5486C244.159 64.4554 243.428 64.3622 243.245 64.3622C240.321 64.3622 238.584 64.4088 238.036 64.4554C237.762 64.4554 237.579 64.3622 237.579 64.2224C237.579 64.1291 237.625 64.0359 237.762 63.9893C237.853 63.9427 238.219 63.8961 238.767 63.8495C239.498 63.7563 240.001 63.4767 240.275 62.964C240.549 62.498 240.732 60.96 240.823 58.4434L241.052 51.1731C241.052 50.3342 241.006 49.5419 240.869 48.7497C240.778 47.9574 240.595 47.4447 240.366 47.2583C240.138 47.0719 239.772 46.8855 239.224 46.7923C238.858 46.7457 238.676 46.6524 238.676 46.466C238.676 46.2796 238.767 46.1864 238.95 46.1864C239.133 46.1864 239.681 46.233 240.595 46.3262C241.509 46.3728 242.514 46.4194 243.565 46.4194ZM243.108 59.6551C243.108 60.8668 243.2 61.7057 243.337 62.2184C243.474 62.731 243.839 63.1504 244.342 63.4767C244.845 63.8029 245.667 63.9893 246.81 63.9893C248.455 63.9893 249.78 63.6165 250.785 62.8242C251.791 62.0319 252.567 61.0066 253.162 59.7017C253.71 58.3968 254.03 56.9987 254.03 55.5539C254.03 53.3635 253.39 51.4061 252.065 49.6351C250.785 47.8642 248.729 46.9787 245.987 46.9787C244.753 46.9787 244.068 47.0253 243.839 47.1185C243.657 47.2117 243.519 47.4447 243.519 47.8642C243.519 48.237 243.474 48.8429 243.428 49.7749C243.337 51.1265 243.291 52.1518 243.245 52.8975L243.108 56.6724C243.154 58.3968 243.108 59.4221 243.108 59.6551Z" fill="white"/>
<path d="M36.4662 77.6911C36.1007 78.0639 35.5523 78.2037 34.8211 78.2037H33.5873V80.9534H32.7648V74.4288H34.8211C35.5523 74.4288 36.1007 74.6152 36.4662 74.9414C36.8318 75.2677 37.0146 75.7337 37.0146 76.293C36.9689 76.8988 36.7861 77.3183 36.4662 77.6911ZM35.8265 77.225C36.055 77.0386 36.1463 76.7124 36.1463 76.3396C36.1463 75.5473 35.6894 75.1278 34.7754 75.1278H33.5416V77.5047H34.7754C35.2324 77.5513 35.598 77.4115 35.8265 77.225Z" fill="white"/>
<path d="M45.9255 80.9534L44.4175 78.297H43.4121V80.9534H42.5896V74.4288H44.646C45.1486 74.4288 45.5142 74.522 45.8798 74.6618C46.1997 74.8482 46.4738 75.0346 46.6109 75.3609C46.7937 75.6405 46.8394 75.9667 46.8394 76.3396C46.8394 76.8056 46.7023 77.1784 46.4738 77.5047C46.1997 77.8309 45.8341 78.0639 45.3314 78.2037L46.9308 80.9068H45.9255V80.9534ZM43.4121 77.5979H44.646C45.1029 77.5979 45.4228 77.5047 45.6513 77.2716C45.8798 77.0386 45.9712 76.759 45.9712 76.3396C45.9712 75.9667 45.8798 75.6405 45.6513 75.4541C45.4228 75.221 45.1029 75.1278 44.646 75.1278H43.4121V77.5979Z" fill="white"/>
<path d="M53.9682 80.5805C53.4656 80.3009 53.1 79.8815 52.8258 79.4154C52.5516 78.9494 52.4146 78.3435 52.4146 77.6911C52.4146 77.0386 52.5516 76.4793 52.8258 75.9667C53.1 75.454 53.5113 75.0812 53.9682 74.8016C54.4709 74.522 54.9736 74.3821 55.5676 74.3821C56.1617 74.3821 56.7101 74.522 57.2127 74.8016C57.7154 75.0812 58.081 75.5007 58.3552 75.9667C58.6293 76.4327 58.7664 77.0386 58.7664 77.6911C58.7664 78.3435 58.6293 78.9028 58.3552 79.4154C58.081 79.9281 57.6697 80.3009 57.2127 80.5805C56.7101 80.8602 56.1617 81 55.5676 81C55.0193 81 54.4709 80.8602 53.9682 80.5805ZM56.8015 79.9747C57.167 79.7417 57.4412 79.462 57.624 79.0892C57.8068 78.7164 57.9439 78.2503 57.9439 77.7377C57.9439 77.225 57.8525 76.759 57.624 76.3861C57.4412 76.0133 57.1213 75.6871 56.8015 75.5006C56.4816 75.3142 56.0246 75.1744 55.6133 75.1744C55.1564 75.1744 54.7451 75.2676 54.4252 75.5006C54.1053 75.7337 53.7855 76.0133 53.6027 76.3861C53.4199 76.759 53.2828 77.225 53.2828 77.7377C53.2828 78.2503 53.3742 78.7164 53.6027 79.0892C53.7855 79.462 54.1053 79.7883 54.4252 79.9747C54.7908 80.2077 55.2021 80.3009 55.6133 80.3009C56.0703 80.2543 56.4359 80.1611 56.8015 79.9747Z" fill="white"/>
<path d="M68.0886 74.4288V75.1278H65.3011V77.3183H67.5402V78.0173H65.3011V80.9534H64.4785V74.4288H68.0886Z" fill="white"/>
<path d="M74.4861 75.1278V77.3183H76.8167V78.0173H74.4861V80.2543H77.0909V80.9534H73.6636V74.4288H77.0909V75.1278H74.4861Z" fill="white"/>
<path d="M83.8083 80.767C83.4885 80.6272 83.2143 80.3941 83.0315 80.1145C82.8487 79.8349 82.7573 79.5553 82.7573 79.1824H83.6256C83.6713 79.5086 83.7627 79.7417 83.9911 79.9281C84.2196 80.1145 84.5395 80.2543 84.9508 80.2543C85.362 80.2543 85.6362 80.1611 85.8647 79.9747C86.0932 79.7883 86.2303 79.5086 86.2303 79.1824C86.2303 78.9494 86.1846 78.7164 86.0475 78.5766C85.9104 78.4367 85.7276 78.2969 85.5448 78.2037C85.362 78.1105 85.0879 78.0173 84.7223 77.9241C84.311 77.8309 83.9454 77.6911 83.717 77.5979C83.4428 77.5047 83.26 77.3182 83.0772 77.0852C82.8944 76.8522 82.803 76.526 82.803 76.1065C82.803 75.7337 82.8944 75.4541 83.0772 75.1744C83.26 74.8948 83.4885 74.7084 83.8083 74.522C84.1282 74.3821 84.4938 74.2889 84.9051 74.2889C85.4991 74.2889 86.0018 74.4288 86.3674 74.755C86.7329 75.0812 86.9614 75.4541 87.0071 75.9667H86.0932C86.0475 75.7337 85.9561 75.5007 85.7276 75.3142C85.4991 75.1278 85.225 75.0346 84.8137 75.0346C84.4481 75.0346 84.1739 75.1278 83.9454 75.3142C83.717 75.5007 83.6256 75.7337 83.6256 76.0599C83.6256 76.2929 83.6713 76.4794 83.8083 76.6192C83.9454 76.759 84.0825 76.8988 84.311 76.9454C84.4938 77.0386 84.768 77.1318 85.1336 77.225C85.5448 77.3648 85.9104 77.458 86.1389 77.5979C86.4131 77.6911 86.5959 77.8775 86.7786 78.1105C86.9614 78.3435 87.0528 78.6698 87.0528 79.0892C87.0528 79.4154 86.9614 79.6951 86.8243 79.9747C86.6416 80.2543 86.4131 80.4873 86.0932 80.6738C85.7733 80.8602 85.4077 80.9534 84.9508 80.9534C84.4938 81 84.1282 80.9534 83.8083 80.767Z" fill="white"/>
<path d="M93.7245 80.767C93.4046 80.6272 93.1304 80.3941 92.9476 80.1145C92.7649 79.8349 92.6735 79.5553 92.6735 79.1824H93.5417C93.5874 79.5086 93.6788 79.7417 93.9073 79.9281C94.1358 80.1145 94.4556 80.2543 94.8669 80.2543C95.2782 80.2543 95.5524 80.1611 95.7809 79.9747C96.0093 79.7883 96.1464 79.5086 96.1464 79.1824C96.1464 78.9494 96.1007 78.7164 95.9636 78.5766C95.8266 78.4367 95.6438 78.2969 95.461 78.2037C95.2782 78.1105 95.004 78.0173 94.6384 77.9241C94.2272 77.8309 93.8616 77.6911 93.6331 77.5979C93.3589 77.5047 93.1761 77.3182 92.9933 77.0852C92.8106 76.8522 92.7192 76.526 92.7192 76.1065C92.7192 75.7337 92.8106 75.4541 92.9933 75.1744C93.1761 74.8948 93.4046 74.7084 93.7245 74.522C94.0444 74.3821 94.4099 74.2889 94.8212 74.2889C95.4153 74.2889 95.9179 74.4288 96.2835 74.755C96.6491 75.0812 96.8776 75.4541 96.9233 75.9667H96.0093C95.9636 75.7337 95.8723 75.5007 95.6438 75.3142C95.4153 75.1278 95.1411 75.0346 94.7298 75.0346C94.3643 75.0346 94.0901 75.1278 93.8616 75.3142C93.6331 75.5007 93.5417 75.7337 93.5417 76.0599C93.5417 76.2929 93.5874 76.4794 93.7245 76.6192C93.8616 76.759 93.9987 76.8988 94.2272 76.9454C94.4099 77.0386 94.6841 77.1318 95.0497 77.225C95.461 77.3648 95.8266 77.458 96.055 77.5979C96.3292 77.6911 96.512 77.8775 96.6948 78.1105C96.8776 78.3435 96.969 78.6698 96.969 79.0892C96.969 79.4154 96.8776 79.6951 96.7405 79.9747C96.5577 80.2543 96.3292 80.4873 96.0093 80.6738C95.6895 80.8602 95.3239 80.9534 94.8669 80.9534C94.4556 81 94.0444 80.9534 93.7245 80.767Z" fill="white"/>
<path d="M103.595 74.4288V80.9534H102.773V74.4288H103.595Z" fill="white"/>
<path d="M110.861 80.5805C110.358 80.3009 109.993 79.8815 109.719 79.4154C109.444 78.9494 109.307 78.3435 109.307 77.6911C109.307 77.0386 109.444 76.4793 109.719 75.9667C109.993 75.454 110.404 75.0812 110.861 74.8016C111.364 74.522 111.866 74.3821 112.46 74.3821C113.054 74.3821 113.603 74.522 114.105 74.8016C114.608 75.0812 114.974 75.5007 115.248 75.9667C115.522 76.4327 115.659 77.0386 115.659 77.6911C115.659 78.3435 115.522 78.9028 115.248 79.4154C114.974 79.9281 114.562 80.3009 114.105 80.5805C113.603 80.8602 113.054 81 112.46 81C111.866 81 111.364 80.8602 110.861 80.5805ZM113.694 79.9747C114.06 79.7417 114.334 79.462 114.517 79.0892C114.699 78.7164 114.837 78.2503 114.837 77.7377C114.837 77.225 114.745 76.759 114.517 76.3861C114.334 76.0133 114.014 75.6871 113.694 75.5006C113.374 75.3142 112.917 75.1744 112.506 75.1744C112.049 75.1744 111.638 75.2676 111.318 75.5006C110.998 75.7337 110.678 76.0133 110.495 76.3861C110.313 76.759 110.175 77.225 110.175 77.7377C110.175 78.2503 110.267 78.7164 110.495 79.0892C110.678 79.462 110.998 79.7883 111.318 79.9747C111.683 80.2077 112.095 80.3009 112.506 80.3009C112.917 80.2543 113.329 80.1611 113.694 79.9747Z" fill="white"/>
<path d="M126.352 80.9534H125.53L122.194 75.7803V80.9534H121.371V74.4288H122.194L125.53 79.6019V74.4288H126.352V80.9534Z" fill="white"/>
<path d="M136.086 79.5086H133.298L132.795 80.9534H131.927L134.212 74.4753H135.172L137.457 80.9534H136.634L136.086 79.5086ZM135.857 78.8096L134.715 75.5472L133.572 78.8096H135.857Z" fill="white"/>
<path d="M143.9 80.2543H146.139V80.9534H143.077V74.4288H143.9V80.2543Z" fill="white"/>
<path d="M165.058 74.4753V80.9534H164.235V76.1531L162.133 80.9534H161.539L159.437 76.1531V80.9534H158.614V74.4753H159.528L161.859 79.7883L164.189 74.4753H165.058Z" fill="white"/>
<path d="M174.791 79.5086H172.004L171.501 80.9534H170.633L172.918 74.4753H173.877L176.162 80.9534H175.294L174.791 79.5086ZM174.563 78.8096L173.42 75.5472L172.278 78.8096H174.563Z" fill="white"/>
<path d="M185.21 80.9534L182.605 77.9707V80.9534H181.783V74.4288H182.605V77.4581L185.256 74.4288H186.307L183.428 77.6911L186.353 80.9534H185.21Z" fill="white"/>
<path d="M192.659 75.1278V77.3183H194.989V78.0173H192.659V80.2543H195.263V80.9534H191.836V74.4288H195.263V75.1278H192.659Z" fill="white"/>
<path d="M201.89 74.4288V78.53C201.89 79.0892 202.027 79.5553 202.301 79.8349C202.575 80.1145 202.941 80.2543 203.443 80.2543C203.946 80.2543 204.311 80.1145 204.586 79.8349C204.86 79.5553 204.997 79.1358 204.997 78.53V74.4288H205.819V78.53C205.819 79.0892 205.728 79.5087 205.5 79.8815C205.271 80.2543 204.997 80.534 204.631 80.7204C204.266 80.9068 203.855 81 203.398 81C202.941 81 202.529 80.9068 202.164 80.7204C201.798 80.534 201.524 80.2543 201.295 79.8815C201.067 79.5087 200.976 79.0426 200.976 78.53V74.4288H201.89Z" fill="white"/>
<path d="M215.507 77.6911C215.142 78.0639 214.593 78.2037 213.862 78.2037H212.628V80.9534H211.806V74.4288H213.862C214.593 74.4288 215.142 74.6152 215.507 74.9414C215.873 75.2677 216.055 75.7337 216.055 76.293C216.055 76.8988 215.873 77.3183 215.507 77.6911ZM214.867 77.225C215.096 77.0386 215.187 76.7124 215.187 76.3396C215.187 75.5473 214.73 75.1278 213.816 75.1278H212.583V77.5047H213.816C214.319 77.5513 214.685 77.4115 214.867 77.225Z" fill="white"/>
<g clip-path="url(#clip0)">
<path d="M133.524 13.6842C134.571 13.5865 135.524 13.391 136.476 13C137.333 12.609 138.095 12.218 138.762 11.6316C139.429 11.0451 139.905 10.3609 140.286 9.57895C140.667 8.79699 140.857 7.91729 140.857 6.93985C140.857 5.66917 140.571 4.59398 140.095 3.71429C139.619 2.83459 138.952 2.15038 138 1.56391C137.143 0.977444 136.095 0.586466 134.857 0.390977C133.81 0.0977444 132.476 0 131.048 0H130.381V2.24812H130.762C131.81 2.24812 132.857 2.34586 133.714 2.54135C134.571 2.73684 135.333 3.03008 136 3.32331C136.667 3.71429 137.143 4.20301 137.429 4.78947C137.81 5.37594 138 6.06015 138 6.93985C138 8.50376 137.333 9.67669 136.095 10.4586C134.857 11.2406 133.048 11.6316 130.667 11.6316H130.381V13.8797H130.476L138.476 26H142.095L133.524 13.6842Z" fill="white"/>
<path d="M130.476 0H114V2.24812H130.476V0Z" fill="white"/>
<path d="M126.952 23.6541H114V26H126.952V23.6541Z" fill="white"/>
<path d="M126.952 11.5338H114V13.8797H126.952V11.5338Z" fill="white"/>
</g>
<defs>
<clipPath id="clip0">
<rect width="28" height="26" fill="white" transform="translate(114)"/>
</clipPath>
</defs>
</svg>
