<svg width="28" height="26" viewBox="0 0 28 26" fill="none" xmlns="http://www.w3.org/2000/svg">
<g clip-path="url(#clip0)">
<path d="M19.5238 13.6842C20.5715 13.5865 21.5238 13.391 22.4762 13C23.3334 12.609 24.0953 12.218 24.7619 11.6316C25.4286 11.0451 25.9048 10.3609 26.2857 9.57895C26.6667 8.79699 26.8572 7.91729 26.8572 6.93985C26.8572 5.66917 26.5715 4.59398 26.0953 3.71429C25.6191 2.83459 24.9524 2.15038 24 1.56391C23.1429 0.977444 22.0953 0.586466 20.8572 0.390977C19.8096 0.0977444 18.4762 0 17.0476 0H16.381V2.24812H16.7619C17.8096 2.24812 18.8572 2.34586 19.7143 2.54135C20.5715 2.73684 21.3334 3.03008 22 3.32331C22.6667 3.71429 23.1429 4.20301 23.4286 4.78947C23.8096 5.37594 24 6.06015 24 6.93985C24 8.50376 23.3334 9.67669 22.0953 10.4586C20.8572 11.2406 19.0476 11.6316 16.6667 11.6316H16.381V13.8797H16.4762L24.4762 26H28.0953L19.5238 13.6842Z" fill="#384454"/>
<path d="M16.4762 0H0V2.24812H16.4762V0Z" fill="#384454"/>
<path d="M12.9524 23.6541H0V26H12.9524V23.6541Z" fill="#384454"/>
<path d="M12.9524 11.5338H0V13.8797H12.9524V11.5338Z" fill="#384454"/>
</g>
<defs>
<clipPath id="clip0">
<rect width="28" height="26" fill="white"/>
</clipPath>
</defs>
</svg>
