<svg width="19" height="19" viewBox="0 0 19 19" fill="none" xmlns="http://www.w3.org/2000/svg">
<path d="M9.50012 9.52448C4.49309 9.52448 0.419434 13.5982 0.419434 18.6052C0.419434 18.8231 0.596322 19 0.814259 19C1.0322 19 1.20908 18.8231 1.20908 18.6052C1.20908 14.0332 4.92822 10.3141 9.50016 10.3141C14.0721 10.3141 17.7912 14.0332 17.7912 18.6052C17.7912 18.8231 17.9681 19 18.1861 19C18.404 19 18.5809 18.8231 18.5809 18.6052C18.5809 13.5974 14.5072 9.52448 9.50012 9.52448Z" fill="white"/>
<path d="M9.49992 0C7.10576 0 5.15698 1.948 5.15698 4.34293C5.15698 6.73787 7.10579 8.68586 9.49992 8.68586C11.894 8.68586 13.8428 6.73787 13.8428 4.34293C13.8428 1.948 11.8941 0 9.49992 0ZM9.49992 7.89625C7.54085 7.89625 5.9466 6.302 5.9466 4.34293C5.9466 2.38387 7.54085 0.789614 9.49992 0.789614C11.459 0.789614 13.0532 2.38387 13.0532 4.34293C13.0532 6.302 11.459 7.89625 9.49992 7.89625Z" fill="white"/>
</svg>
