<svg width="45" height="45" viewBox="0 0 45 45" fill="none" xmlns="http://www.w3.org/2000/svg">
<g clip-path="url(#clip0)">
<path d="M36.8264 22.5006L42.0357 17.2912C44.8239 14.5031 45.7423 10.3106 44.3752 6.61038C44.207 6.15485 43.7011 5.92235 43.2459 6.09042C42.7905 6.25867 42.5578 6.7643 42.7261 7.21965C43.856 10.2782 43.0971 13.7436 40.7925 16.0481L35.5831 21.2574L23.7425 9.41658L28.9518 4.20722C31.2564 1.90252 34.7219 1.14363 37.7803 2.27374C38.2353 2.44208 38.7413 2.20922 38.9096 1.75378C39.0778 1.29835 38.8451 0.792802 38.3897 0.624551C34.6897 -0.742729 30.497 0.175619 27.7087 2.96398L22.4993 8.17334L17.2899 2.96398C13.3398 -0.986051 6.91279 -0.986051 2.96277 2.96398C-0.987263 6.91401 -0.987263 13.3411 2.96277 17.2911L8.17213 22.5005L2.96277 27.7099C-0.987263 31.6599 -0.987263 38.087 2.96277 42.037C4.93782 44.012 7.532 44.9995 10.1264 44.9995C12.7207 44.9995 15.3149 44.0121 17.2899 42.037L22.4993 36.8277L27.7087 42.037C29.6837 44.012 32.2779 44.9995 34.8722 44.9995C37.4666 44.9995 40.0608 44.0121 42.0358 42.037C45.9859 38.087 45.9859 31.6599 42.0358 27.7099L36.8264 22.5006ZM16.0467 40.794C12.7821 44.0586 7.47038 44.0586 4.20592 40.794C0.941381 37.5294 0.941381 32.2177 4.20592 28.9531L9.4152 23.7438L21.256 35.5846L16.0467 40.794ZM40.7926 40.794C39.2113 42.3754 37.1086 43.2463 34.8722 43.2463C32.6357 43.2463 30.5331 42.3754 28.9517 40.794L4.20592 16.0481C2.62451 14.4667 1.75363 12.3641 1.75363 10.1277C1.75363 7.89116 2.62451 5.78864 4.20592 4.20722C5.78725 2.62581 7.88986 1.75493 10.1264 1.75493C12.3628 1.75493 14.4654 2.62581 16.0468 4.20722L40.7927 28.9531C42.3741 30.5345 43.245 32.6371 43.245 34.8735C43.245 37.11 42.374 39.2126 40.7926 40.794Z" fill="white"/>
<path d="M24.0475 15.4107C23.286 14.6491 22.2735 14.2297 21.1965 14.2297C20.1196 14.2297 19.107 14.6491 18.3455 15.4107L15.4089 18.3472C14.6474 19.1087 14.228 20.1212 14.228 21.1982C14.228 22.2751 14.6474 23.2876 15.4089 24.0491L20.951 29.5911C21.7126 30.3526 22.725 30.772 23.802 30.772C24.8789 30.772 25.8915 30.3526 26.653 29.5911L29.5896 26.6545C30.3511 25.8929 30.7705 24.8804 30.7705 23.8035C30.7705 22.7266 30.3511 21.7141 29.5896 20.9526L24.0475 15.4107ZM28.3463 25.4114L25.4098 28.348C24.9803 28.7775 24.4093 29.014 23.802 29.014C23.1946 29.014 22.6237 28.7775 22.1943 28.348L16.6522 22.806C16.2227 22.3765 15.9862 21.8056 15.9862 21.1982C15.9862 20.5908 16.2227 20.0199 16.6522 19.5904L19.5888 16.6538C20.0182 16.2243 20.5892 15.9878 21.1965 15.9878C21.8039 15.9878 22.3748 16.2243 22.8042 16.6538L28.3463 22.1959C28.7758 22.6253 29.0123 23.1963 29.0123 23.8037C29.0123 24.411 28.7758 24.982 28.3463 25.4114Z" fill="white"/>
<path d="M41.4142 4.4649C41.8997 4.4649 42.2933 4.07133 42.2933 3.58584C42.2933 3.10035 41.8997 2.70679 41.4142 2.70679C40.9287 2.70679 40.5352 3.10035 40.5352 3.58584C40.5352 4.07133 40.9287 4.4649 41.4142 4.4649Z" fill="white"/>
<path d="M34.297 8.24834C34.7825 8.24834 35.1761 7.85477 35.1761 7.36929C35.1761 6.8838 34.7825 6.49023 34.297 6.49023C33.8115 6.49023 33.418 6.8838 33.418 7.36929C33.418 7.85477 33.8115 8.24834 34.297 8.24834Z" fill="white"/>
<path d="M29.0296 10.1824C29.5151 10.1824 29.9086 9.78886 29.9086 9.30337C29.9086 8.81788 29.5151 8.42432 29.0296 8.42432C28.5441 8.42432 28.1505 8.81788 28.1505 9.30337C28.1505 9.78886 28.5441 10.1824 29.0296 10.1824Z" fill="white"/>
<path d="M32.3628 13.5162C32.8483 13.5162 33.2419 13.1226 33.2419 12.6371C33.2419 12.1516 32.8483 11.7581 32.3628 11.7581C31.8773 11.7581 31.4838 12.1516 31.4838 12.6371C31.4838 13.1226 31.8773 13.5162 32.3628 13.5162Z" fill="white"/>
<path d="M35.6962 16.867C36.1817 16.867 36.5752 16.4734 36.5752 15.9879C36.5752 15.5025 36.1817 15.1089 35.6962 15.1089C35.2107 15.1089 34.8171 15.5025 34.8171 15.9879C34.8171 16.4734 35.2107 16.867 35.6962 16.867Z" fill="white"/>
<path d="M37.6304 11.5821C38.1159 11.5821 38.5095 11.1885 38.5095 10.703C38.5095 10.2175 38.1159 9.82397 37.6304 9.82397C37.1449 9.82397 36.7513 10.2175 36.7513 10.703C36.7513 11.1885 37.1449 11.5821 37.6304 11.5821Z" fill="white"/>
<path d="M10.7013 8.24834C11.1868 8.24834 11.5804 7.85477 11.5804 7.36929C11.5804 6.8838 11.1868 6.49023 10.7013 6.49023C10.2158 6.49023 9.82227 6.8838 9.82227 7.36929C9.82227 7.85477 10.2158 8.24834 10.7013 8.24834Z" fill="white"/>
<path d="M15.9687 10.1824C16.4541 10.1824 16.8477 9.78886 16.8477 9.30337C16.8477 8.81788 16.4541 8.42432 15.9687 8.42432C15.4832 8.42432 15.0896 8.81788 15.0896 9.30337C15.0896 9.78886 15.4832 10.1824 15.9687 10.1824Z" fill="white"/>
<path d="M13.4535 12.9761C13.6394 12.5275 13.4265 12.0131 12.9779 11.8272C12.5293 11.6412 12.0149 11.8541 11.829 12.3027C11.643 12.7513 11.856 13.2657 12.3046 13.4517C12.7531 13.6376 13.2675 13.4247 13.4535 12.9761Z" fill="white"/>
<path d="M9.30178 16.867C9.78727 16.867 10.1808 16.4734 10.1808 15.9879C10.1808 15.5025 9.78727 15.1089 9.30178 15.1089C8.8163 15.1089 8.42273 15.5025 8.42273 15.9879C8.42273 16.4734 8.8163 16.867 9.30178 16.867Z" fill="white"/>
<path d="M7.36794 11.5821C7.85343 11.5821 8.247 11.1885 8.247 10.703C8.247 10.2175 7.85343 9.82397 7.36794 9.82397C6.88246 9.82397 6.48889 10.2175 6.48889 10.703C6.48889 11.1885 6.88246 11.5821 7.36794 11.5821Z" fill="white"/>
<path d="M10.7013 38.511C11.1868 38.511 11.5804 38.1175 11.5804 37.632C11.5804 37.1465 11.1868 36.7529 10.7013 36.7529C10.2158 36.7529 9.82227 37.1465 9.82227 37.632C9.82227 38.1175 10.2158 38.511 10.7013 38.511Z" fill="white"/>
<path d="M15.9687 36.5774C16.4541 36.5774 16.8477 36.1839 16.8477 35.6984C16.8477 35.2129 16.4541 34.8193 15.9687 34.8193C15.4832 34.8193 15.0896 35.2129 15.0896 35.6984C15.0896 36.1839 15.4832 36.5774 15.9687 36.5774Z" fill="white"/>
<path d="M12.7692 33.2313C13.2483 33.1536 13.5738 32.7022 13.4961 32.223C13.4185 31.7439 12.967 31.4184 12.4879 31.4961C12.0087 31.5737 11.6832 32.0252 11.7609 32.5043C11.8386 32.9835 12.29 33.309 12.7692 33.2313Z" fill="white"/>
<path d="M9.30178 29.8929C9.78727 29.8929 10.1808 29.4993 10.1808 29.0138C10.1808 28.5283 9.78727 28.1348 9.30178 28.1348C8.8163 28.1348 8.42273 28.5283 8.42273 29.0138C8.42273 29.4993 8.8163 29.8929 9.30178 29.8929Z" fill="white"/>
<path d="M7.36794 35.1775C7.85343 35.1775 8.247 34.784 8.247 34.2985C8.247 33.813 7.85343 33.4194 7.36794 33.4194C6.88246 33.4194 6.48889 33.813 6.48889 34.2985C6.48889 34.784 6.88246 35.1775 7.36794 35.1775Z" fill="white"/>
<path d="M34.2971 38.511C34.7826 38.511 35.1762 38.1175 35.1762 37.632C35.1762 37.1465 34.7826 36.7529 34.2971 36.7529C33.8117 36.7529 33.4181 37.1465 33.4181 37.632C33.4181 38.1175 33.8117 38.511 34.2971 38.511Z" fill="white"/>
<path d="M29.0296 36.5774C29.5151 36.5774 29.9086 36.1839 29.9086 35.6984C29.9086 35.2129 29.5151 34.8193 29.0296 34.8193C28.5441 34.8193 28.1505 35.2129 28.1505 35.6984C28.1505 36.1839 28.5441 36.5774 29.0296 36.5774Z" fill="white"/>
<path d="M32.3628 33.2435C32.8483 33.2435 33.2419 32.8499 33.2419 32.3644C33.2419 31.8789 32.8483 31.4854 32.3628 31.4854C31.8773 31.4854 31.4838 31.8789 31.4838 32.3644C31.4838 32.8499 31.8773 33.2435 32.3628 33.2435Z" fill="white"/>
<path d="M35.6962 29.8929C36.1817 29.8929 36.5752 29.4993 36.5752 29.0138C36.5752 28.5283 36.1817 28.1348 35.6962 28.1348C35.2107 28.1348 34.8171 28.5283 34.8171 29.0138C34.8171 29.4993 35.2107 29.8929 35.6962 29.8929Z" fill="white"/>
<path d="M37.6304 35.1775C38.1159 35.1775 38.5095 34.784 38.5095 34.2985C38.5095 33.813 38.1159 33.4194 37.6304 33.4194C37.1449 33.4194 36.7513 33.813 36.7513 34.2985C36.7513 34.784 37.1449 35.1775 37.6304 35.1775Z" fill="white"/>
</g>
<defs>
<clipPath id="clip0">
<rect width="45" height="45" fill="white"/>
</clipPath>
</defs>
</svg>
