<svg width="22" height="22" viewBox="0 0 22 22" fill="none" xmlns="http://www.w3.org/2000/svg">
<path d="M17.9194 5.93247H15.0265V4.74618C15.0265 2.49868 13.2043 0.676514 10.9568 0.676514C8.70917 0.676514 6.887 2.49868 6.887 4.74618V5.93247H3.75507C3.49652 5.93321 3.28687 6.14257 3.28613 6.40141V18.9572C3.28672 20.2518 4.33603 21.3011 5.63053 21.3016H16.0485C17.3431 21.3011 18.3924 20.2518 18.3927 18.9572V6.40141C18.3898 6.14169 18.1788 5.93291 17.9194 5.93247ZM7.82004 4.74148C7.82004 3.01181 9.22245 1.6094 10.952 1.6094C12.6819 1.6094 14.0841 3.01181 14.0841 4.74148V5.92777H7.82004V4.74148ZM17.4505 18.9572C17.4481 19.7333 16.8197 20.3617 16.0439 20.3639H5.62598C4.8499 20.3617 4.22151 19.7333 4.21931 18.9572V6.8702H6.88231V8.7784C6.88231 9.03739 7.0924 9.24734 7.3511 9.24734C7.61009 9.24734 7.82004 9.03739 7.82004 8.7784V6.8702H14.0887V8.7784C14.0887 9.03739 14.2987 9.24734 14.5577 9.24734C14.8164 9.24734 15.0265 9.03739 15.0265 8.7784V6.8702H17.4505V18.9572Z" fill="white"/>
</svg>
