<svg width="21" height="21" viewBox="0 0 21 21" fill="none" xmlns="http://www.w3.org/2000/svg">
<g clip-path="url(#clip0)">
<path d="M11.731 10.5059L20.7328 1.50402C21.0802 1.16848 21.0899 0.61484 20.7543 0.267408C20.4188 -0.0800253 19.8651 -0.0896591 19.5177 0.245885C19.5104 0.252906 19.5033 0.26008 19.4962 0.267408L10.4943 9.26925L1.49245 0.267356C1.14502 -0.0681879 0.591378 -0.0585541 0.255834 0.288879C-0.0715114 0.627805 -0.0715114 1.1651 0.255834 1.50402L9.25768 10.5059L0.255834 19.5077C-0.0856035 19.8492 -0.0856035 20.4028 0.255834 20.7443C0.597322 21.0857 1.15096 21.0857 1.49245 20.7443L10.4943 11.7425L19.4961 20.7443C19.8436 21.0799 20.3972 21.0702 20.7327 20.7228C21.06 20.3839 21.06 19.8466 20.7327 19.5077L11.731 10.5059Z" fill="white"/>
</g>
<defs>
<clipPath id="clip0">
<rect width="21" height="21" fill="white"/>
</clipPath>
</defs>
</svg>
