<svg width="93" height="93" viewBox="0 0 93 93" fill="none" xmlns="http://www.w3.org/2000/svg">
<circle cx="46.5" cy="46.5" r="46" stroke="#1B1B1B"/>
<g clip-path="url(#clip0)">
<path d="M69.4369 45.7216L67.6404 45.0299C65.0274 44.0238 62.7034 42.3511 60.9198 40.1924C59.3012 38.2336 56.9156 37.1102 54.3747 37.1102C52.0662 37.1102 49.8281 38.0678 48.234 39.7375L47.5001 40.5061L46.7662 39.7375C45.172 38.0678 42.9338 37.1102 40.6255 37.1102C38.0845 37.1102 35.6989 38.2336 34.0803 40.1925C32.2968 42.351 29.9729 44.0238 27.3597 45.0299L25.5632 45.7216C25.168 45.8737 24.9375 46.286 25.0149 46.7023C25.0923 47.1187 25.4556 47.4207 25.879 47.4207C27.1851 47.4207 28.7618 49.0914 30.5876 51.0259C34.1142 54.7627 38.943 59.8788 47.4833 59.8899C47.4851 59.8899 47.4872 59.8899 47.489 59.8899H47.511C47.5128 59.8899 47.5148 59.8899 47.5167 59.8899C56.057 59.8788 60.8858 54.7627 64.4124 51.0259C66.2381 49.0914 67.8149 47.4207 69.121 47.4207C69.5444 47.4207 69.9077 47.1187 69.9851 46.7023C70.0626 46.2861 69.8322 45.8737 69.4369 45.7216ZM63.1342 49.8195C59.6406 53.5212 55.2927 58.1277 47.5001 58.1322C39.7074 58.1277 35.3595 53.5212 31.8659 49.8195C31.1179 49.0269 30.4238 48.2921 29.7516 47.6668C32.3149 47.2294 36.1147 46.9067 38.9906 48.0577C43.1345 49.7164 46.2973 49.8991 47.4895 49.8991C47.4966 49.8991 47.5034 49.8991 47.5104 49.8991C48.7029 49.8991 51.8659 49.7163 56.0094 48.0577C58.8663 46.9142 62.6076 47.213 65.2491 47.6661C64.5768 48.2917 63.8824 49.0267 63.1342 49.8195ZM55.3563 46.4257C51.9467 47.7904 49.2416 48.078 47.9522 48.1295C47.9468 48.1294 47.9415 48.1294 47.936 48.1294H47.0641C47.0592 48.1294 47.0544 48.1294 47.0495 48.1295C45.7595 48.0782 43.054 47.7907 39.6438 46.4257C36.4957 45.1657 32.5048 45.4421 29.7357 45.8881C31.9199 44.7686 33.8669 43.2107 35.4355 41.3123C36.719 39.759 38.6107 38.8681 40.6255 38.8681C42.456 38.8681 44.2309 39.6274 45.4949 40.9514L46.8644 42.3858C47.0303 42.5594 47.26 42.6577 47.5001 42.6577C47.7402 42.6577 47.9699 42.5594 48.1357 42.3858L49.5052 40.9514C50.7693 39.6274 52.5441 38.8681 54.3746 38.8681C56.3895 38.8681 58.2812 39.759 59.5646 41.3122C61.1329 43.2102 63.079 44.7676 65.2625 45.8871C62.4198 45.4272 58.4835 45.174 55.3563 46.4257Z" fill="black"/>
<path d="M58.8229 42.8287C57.7109 41.4829 56.0719 40.7111 54.3262 40.7111C53.8408 40.7111 53.4473 41.1045 53.4473 41.59C53.4473 42.0754 53.8408 42.469 54.3262 42.469C55.5458 42.469 56.6909 43.0082 57.4678 43.9484C57.6417 44.1588 57.8928 44.2675 58.1459 44.2675C58.343 44.2675 58.5414 44.2015 58.7052 44.0661C59.0794 43.7569 59.132 43.2029 58.8229 42.8287Z" fill="black"/>
<path d="M44.4397 54.2069C42.5276 53.9338 40.8782 53.224 39.3974 52.0372C39.0186 51.7337 38.4656 51.7946 38.1618 52.1733C37.8583 52.5521 37.9192 53.1053 38.298 53.4088C40.0312 54.7978 41.9589 55.628 44.1911 55.947C44.2332 55.9531 44.275 55.956 44.3165 55.956C44.7468 55.956 45.1228 55.6396 45.1855 55.2013C45.2541 54.7208 44.9202 54.2757 44.4397 54.2069Z" fill="black"/>
<path d="M47.8321 54.6917L47.7886 54.6855C47.3075 54.6167 46.8627 54.9506 46.7941 55.4312C46.7255 55.9116 47.0593 56.3569 47.5397 56.4256L47.5832 56.4319C47.6254 56.4378 47.6673 56.4408 47.7088 56.4408C48.1391 56.4408 48.5151 56.1245 48.5777 55.6862C48.6464 55.2057 48.3126 54.7605 47.8321 54.6917Z" fill="black"/>
</g>
<defs>
<clipPath id="clip0">
<rect width="45" height="45" fill="white" transform="translate(25 26)"/>
</clipPath>
</defs>
</svg>
