<svg width="93" height="93" viewBox="0 0 93 93" fill="none" xmlns="http://www.w3.org/2000/svg">
<g clip-path="url(#clip0)">
<path d="M61.8261 48.5007L67.0355 43.2914C69.8237 40.5032 70.742 36.3107 69.3749 32.6105C69.2068 32.155 68.7009 31.9225 68.2457 32.0905C67.7903 32.2588 67.5576 32.7644 67.7258 33.2198C68.8558 36.2784 68.0969 39.7437 65.7923 42.0482L60.5829 47.2576L48.7422 35.4167L53.9516 30.2073C56.2562 27.9026 59.7217 27.1438 62.7801 28.2739C63.2351 28.4422 63.7411 28.2093 63.9093 27.7539C64.0776 27.2985 63.8449 26.7929 63.3894 26.6247C59.6894 25.2574 55.4968 26.1757 52.7084 28.9641L47.4991 34.1735L42.2897 28.9641C38.3396 25.0141 31.9125 25.0141 27.9625 28.9641C24.0125 32.9141 24.0125 39.3412 27.9625 43.2913L33.1719 48.5006L27.9625 53.71C24.0125 57.66 24.0125 64.0871 27.9625 68.0372C29.9376 70.0121 32.5318 70.9997 35.1261 70.9997C37.7205 70.9997 40.3146 70.0122 42.2897 68.0372L47.4991 62.8278L52.7084 68.0372C54.6835 70.0121 57.2776 70.9997 59.872 70.9997C62.4664 70.9997 65.0605 70.0122 67.0356 68.0372C70.9856 64.0871 70.9856 57.66 67.0356 53.71L61.8261 48.5007ZM41.0464 66.7941C37.7819 70.0587 32.4701 70.0587 29.2057 66.7941C25.9411 63.5296 25.9411 58.2179 29.2057 54.9532L34.415 49.7439L46.2557 61.5847L41.0464 66.7941ZM65.7923 66.7941C64.211 68.3755 62.1084 69.2464 59.8719 69.2464C57.6354 69.2464 55.5329 68.3755 53.9515 66.7941L29.2057 42.0482C27.6243 40.4668 26.7534 38.3643 26.7534 36.1278C26.7534 33.8913 27.6243 31.7888 29.2057 30.2073C30.787 28.6259 32.8896 27.755 35.1261 27.755C37.3626 27.755 39.4651 28.6259 41.0465 30.2073L65.7924 54.9532C67.3738 56.5347 68.2447 58.6372 68.2447 60.8737C68.2447 63.1102 67.3738 65.2127 65.7923 66.7941Z" fill="black"/>
<path d="M49.047 41.4107C48.2855 40.6491 47.273 40.2297 46.1961 40.2297C45.1191 40.2297 44.1066 40.6491 43.345 41.4107L40.4085 44.3472C39.6469 45.1087 39.2275 46.1212 39.2275 47.1982C39.2275 48.2751 39.6469 49.2876 40.4085 50.0491L45.9505 55.5911C46.7121 56.3526 47.7246 56.772 48.8015 56.772C49.8784 56.772 50.891 56.3526 51.6525 55.5911L54.5891 52.6545C55.3506 51.8929 55.77 50.8804 55.77 49.8035C55.77 48.7266 55.3506 47.7141 54.5891 46.9526L49.047 41.4107ZM53.3458 51.4114L50.4093 54.348C49.9799 54.7775 49.4088 55.014 48.8015 55.014C48.1941 55.014 47.6232 54.7775 47.1938 54.348L41.6517 48.806C41.2222 48.3765 40.9857 47.8056 40.9857 47.1982C40.9857 46.5908 41.2222 46.0199 41.6517 45.5904L44.5883 42.6538C45.0177 42.2243 45.5887 41.9878 46.1961 41.9878C46.8034 41.9878 47.3743 42.2243 47.8038 42.6538L53.3458 48.1959C53.7754 48.6253 54.0118 49.1963 54.0118 49.8037C54.0118 50.411 53.7754 50.982 53.3458 51.4114Z" fill="black"/>
<path d="M66.4142 30.465C66.8997 30.465 67.2933 30.0715 67.2933 29.586C67.2933 29.1005 66.8997 28.7069 66.4142 28.7069C65.9287 28.7069 65.5352 29.1005 65.5352 29.586C65.5352 30.0715 65.9287 30.465 66.4142 30.465Z" fill="black"/>
<path d="M59.297 34.2483C59.7825 34.2483 60.1761 33.8548 60.1761 33.3693C60.1761 32.8838 59.7825 32.4902 59.297 32.4902C58.8115 32.4902 58.418 32.8838 58.418 33.3693C58.418 33.8548 58.8115 34.2483 59.297 34.2483Z" fill="black"/>
<path d="M54.0294 36.1824C54.5149 36.1824 54.9085 35.7889 54.9085 35.3034C54.9085 34.8179 54.5149 34.4243 54.0294 34.4243C53.544 34.4243 53.1504 34.8179 53.1504 35.3034C53.1504 35.7889 53.544 36.1824 54.0294 36.1824Z" fill="black"/>
<path d="M57.3625 39.5163C57.8479 39.5163 58.2415 39.1227 58.2415 38.6372C58.2415 38.1517 57.8479 37.7582 57.3625 37.7582C56.877 37.7582 56.4834 38.1517 56.4834 38.6372C56.4834 39.1227 56.877 39.5163 57.3625 39.5163Z" fill="black"/>
<path d="M60.6955 42.867C61.1809 42.867 61.5745 42.4734 61.5745 41.9879C61.5745 41.5025 61.1809 41.1089 60.6955 41.1089C60.21 41.1089 59.8164 41.5025 59.8164 41.9879C59.8164 42.4734 60.21 42.867 60.6955 42.867Z" fill="black"/>
<path d="M62.63 37.5821C63.1155 37.5821 63.5091 37.1885 63.5091 36.703C63.5091 36.2175 63.1155 35.824 62.63 35.824C62.1445 35.824 61.751 36.2175 61.751 36.703C61.751 37.1885 62.1445 37.5821 62.63 37.5821Z" fill="black"/>
<path d="M35.7013 34.2483C36.1868 34.2483 36.5804 33.8548 36.5804 33.3693C36.5804 32.8838 36.1868 32.4902 35.7013 32.4902C35.2158 32.4902 34.8223 32.8838 34.8223 33.3693C34.8223 33.8548 35.2158 34.2483 35.7013 34.2483Z" fill="black"/>
<path d="M40.9689 36.1824C41.4544 36.1824 41.848 35.7889 41.848 35.3034C41.848 34.8179 41.4544 34.4243 40.9689 34.4243C40.4834 34.4243 40.0898 34.8179 40.0898 35.3034C40.0898 35.7889 40.4834 36.1824 40.9689 36.1824Z" fill="black"/>
<path d="M38.4534 38.9763C38.6393 38.5278 38.4264 38.0134 37.9778 37.8274C37.5292 37.6415 37.0148 37.8544 36.8289 38.303C36.6429 38.7516 36.8558 39.266 37.3044 39.4519C37.753 39.6379 38.2674 39.4249 38.4534 38.9763Z" fill="black"/>
<path d="M34.3019 42.867C34.7874 42.867 35.181 42.4734 35.181 41.9879C35.181 41.5025 34.7874 41.1089 34.3019 41.1089C33.8164 41.1089 33.4229 41.5025 33.4229 41.9879C33.4229 42.4734 33.8164 42.867 34.3019 42.867Z" fill="black"/>
<path d="M32.3673 37.5821C32.8528 37.5821 33.2464 37.1885 33.2464 36.703C33.2464 36.2175 32.8528 35.824 32.3673 35.824C31.8818 35.824 31.4883 36.2175 31.4883 36.703C31.4883 37.1885 31.8818 37.5821 32.3673 37.5821Z" fill="black"/>
<path d="M35.7013 64.5112C36.1868 64.5112 36.5804 64.1176 36.5804 63.6321C36.5804 63.1466 36.1868 62.7531 35.7013 62.7531C35.2158 62.7531 34.8223 63.1466 34.8223 63.6321C34.8223 64.1176 35.2158 64.5112 35.7013 64.5112Z" fill="black"/>
<path d="M40.9689 62.5774C41.4544 62.5774 41.848 62.1839 41.848 61.6984C41.848 61.2129 41.4544 60.8193 40.9689 60.8193C40.4834 60.8193 40.0898 61.2129 40.0898 61.6984C40.0898 62.1839 40.4834 62.5774 40.9689 62.5774Z" fill="black"/>
<path d="M37.769 59.2314C38.2482 59.1538 38.5737 58.7023 38.496 58.2232C38.4183 57.744 37.9669 57.4185 37.4877 57.4962C37.0086 57.5739 36.6831 58.0253 36.7608 58.5045C36.8384 58.9836 37.2899 59.3091 37.769 59.2314Z" fill="black"/>
<path d="M34.3019 55.8931C34.7874 55.8931 35.181 55.4996 35.181 55.0141C35.181 54.5286 34.7874 54.135 34.3019 54.135C33.8164 54.135 33.4229 54.5286 33.4229 55.0141C33.4229 55.4996 33.8164 55.8931 34.3019 55.8931Z" fill="black"/>
<path d="M32.3673 61.1775C32.8528 61.1775 33.2464 60.784 33.2464 60.2985C33.2464 59.813 32.8528 59.4194 32.3673 59.4194C31.8818 59.4194 31.4883 59.813 31.4883 60.2985C31.4883 60.784 31.8818 61.1775 32.3673 61.1775Z" fill="black"/>
<path d="M59.297 64.5112C59.7825 64.5112 60.1761 64.1176 60.1761 63.6321C60.1761 63.1466 59.7825 62.7531 59.297 62.7531C58.8115 62.7531 58.418 63.1466 58.418 63.6321C58.418 64.1176 58.8115 64.5112 59.297 64.5112Z" fill="black"/>
<path d="M54.0294 62.5774C54.5149 62.5774 54.9085 62.1839 54.9085 61.6984C54.9085 61.2129 54.5149 60.8193 54.0294 60.8193C53.544 60.8193 53.1504 61.2129 53.1504 61.6984C53.1504 62.1839 53.544 62.5774 54.0294 62.5774Z" fill="black"/>
<path d="M57.3625 59.2436C57.8479 59.2436 58.2415 58.85 58.2415 58.3645C58.2415 57.879 57.8479 57.4855 57.3625 57.4855C56.877 57.4855 56.4834 57.879 56.4834 58.3645C56.4834 58.85 56.877 59.2436 57.3625 59.2436Z" fill="black"/>
<path d="M60.6955 55.8931C61.1809 55.8931 61.5745 55.4996 61.5745 55.0141C61.5745 54.5286 61.1809 54.135 60.6955 54.135C60.21 54.135 59.8164 54.5286 59.8164 55.0141C59.8164 55.4996 60.21 55.8931 60.6955 55.8931Z" fill="black"/>
<path d="M62.63 61.1775C63.1155 61.1775 63.5091 60.784 63.5091 60.2985C63.5091 59.813 63.1155 59.4194 62.63 59.4194C62.1445 59.4194 61.751 59.813 61.751 60.2985C61.751 60.784 62.1445 61.1775 62.63 61.1775Z" fill="black"/>
</g>
<circle cx="46.5" cy="46.5" r="46" stroke="#1B1B1B"/>
<defs>
<clipPath id="clip0">
<rect width="45" height="45" fill="white" transform="translate(25 26)"/>
</clipPath>
</defs>
</svg>
