<svg width="93" height="93" viewBox="0 0 93 93" fill="none" xmlns="http://www.w3.org/2000/svg">
<g clip-path="url(#clip0)">
<path d="M68.8476 47.3497L61.7908 36.9851C60.315 34.8177 58.1245 33.192 55.6225 32.4074C53.1205 31.623 50.3939 31.7066 47.9448 32.6435L41.5013 35.108C41.0479 35.2814 40.821 35.7894 40.9943 36.2428C41.1677 36.6961 41.6758 36.9228 42.1292 36.7497L48.5727 34.2852C52.8954 32.6321 57.7332 34.1489 60.3379 37.9744L64.6722 44.3403L56.8939 38.862C55.2637 37.7138 53.1636 37.4125 51.2762 38.0562L27.8723 46.0379C27.0577 46.3161 26.1623 45.8811 25.8766 45.0691C25.511 44.0298 26.0307 42.9072 27.0598 42.5136L35.1128 39.4335C35.5662 39.2601 35.793 38.7521 35.6197 38.2987C35.4462 37.8453 34.938 37.6186 34.4849 37.7918L26.4318 40.872C24.5068 41.6082 23.5346 43.708 24.2184 45.6524C24.8226 47.37 26.7161 48.2894 28.4396 47.7015L51.8437 39.7199C53.2003 39.2572 54.7099 39.4737 55.8819 40.2991L67.6153 48.563C67.768 48.6705 67.9449 48.7233 68.1211 48.7233C68.3454 48.7233 68.5683 48.6377 68.7378 48.4708C69.0403 48.1727 69.0867 47.7008 68.8476 47.3497Z" fill="black"/>
<path d="M39.1466 36.5661C38.9831 36.4018 38.7564 36.3086 38.5253 36.3086C38.2942 36.3086 38.0674 36.4018 37.904 36.5661C37.7405 36.7296 37.6465 36.9556 37.6465 37.1874C37.6465 37.4186 37.7405 37.6453 37.904 37.8087C38.0675 37.9722 38.2942 38.0662 38.5253 38.0662C38.7565 38.0662 38.9832 37.9722 39.1466 37.8087C39.3101 37.6452 39.4041 37.4185 39.4041 37.1874C39.4041 36.9554 39.3101 36.7296 39.1466 36.5661Z" fill="black"/>
<path d="M61.9211 55.7685L61.8878 55.7582C60.8297 55.4298 59.9191 54.7721 59.2769 53.8834C59.9363 53.352 60.5721 52.7835 61.1794 52.1762C61.5227 51.833 61.5227 51.2765 61.1794 50.9332C60.8363 50.5901 60.2798 50.5901 59.9366 50.9332C56.4898 54.3801 52.0872 56.5234 47.3265 57.1165C47.2946 57.1187 47.2631 57.1224 47.2322 57.1279C46.366 57.232 45.4884 57.2854 44.6024 57.2855C44.602 57.2855 44.6015 57.2854 44.601 57.2854C44.6005 57.2854 44.6001 57.2855 44.5996 57.2855C43.7137 57.2855 42.836 57.232 41.9697 57.1279C41.9388 57.1223 41.9074 57.1187 41.8754 57.1165C37.1147 56.5234 32.7121 54.3801 29.2654 50.9332C28.9221 50.5902 28.3657 50.5901 28.0225 50.9332C27.6793 51.2765 27.6793 51.8329 28.0225 52.1762C28.6298 52.7835 29.2656 53.3521 29.9251 53.8834C29.2829 54.7721 28.3725 55.4299 27.3153 55.7578L27.2809 55.7685C26.8171 55.9117 26.5573 56.4038 26.7005 56.8676C26.8171 57.245 27.1647 57.4873 27.5399 57.4873C27.6258 57.4873 27.7132 57.4745 27.7995 57.4479L27.8351 57.4369C29.2509 56.9975 30.4703 56.1196 31.3337 54.934C31.6343 55.1412 31.939 55.3411 32.2479 55.5333C31.8188 56.8799 30.8143 57.9681 29.4819 58.4967L29.2098 58.6045C28.7586 58.7835 28.538 59.2943 28.7168 59.7454C28.8536 60.0904 29.1842 60.3005 29.5339 60.3005C29.6418 60.3005 29.7514 60.2804 29.8577 60.2383L30.1301 60.1303C31.8397 59.4521 33.1573 58.1023 33.8012 56.4184C34.1388 56.594 34.4803 56.7611 34.8256 56.9197C34.7249 58.4267 33.8535 59.772 32.5008 60.4778L32.4484 60.5051C32.018 60.7295 31.851 61.2602 32.0753 61.6906C32.232 61.9913 32.5382 62.1634 32.8553 62.1634C32.9921 62.1634 33.1311 62.1313 33.2608 62.0637L33.3134 62.0362C35.0393 61.1358 36.2066 59.4945 36.5126 57.6152C36.8853 57.7519 37.2615 57.8794 37.6413 57.9969C37.591 59.3909 37.0505 60.7159 36.1042 61.7482C35.7761 62.106 35.8003 62.6618 36.1582 62.9899C36.327 63.1446 36.5397 63.2209 36.7517 63.2209C36.9896 63.2209 37.2266 63.1249 37.3998 62.9359C38.5387 61.6934 39.2259 60.1248 39.3733 58.4608C39.8784 58.5753 40.3886 58.6722 40.9029 58.7532C40.789 60.1033 40.3747 61.4162 39.6854 62.5892L39.5671 62.7905C39.3213 63.2091 39.4613 63.7476 39.8799 63.9935C40.0197 64.0756 40.1729 64.1147 40.3242 64.1147C40.6257 64.1147 40.9191 63.9594 41.0828 63.6807L41.201 63.4795C42.0133 62.0971 42.5059 60.5518 42.6491 58.9617C43.0053 58.9909 43.363 59.0119 43.7221 59.0251V64.2465C43.7221 64.7318 44.1156 65.1253 44.6009 65.1253C45.0863 65.1253 45.4797 64.7318 45.4797 64.2465V59.0251C45.839 59.0119 46.1966 58.9909 46.5527 58.9617C46.696 60.5517 47.1884 62.0971 48.0007 63.4793L48.119 63.6807C48.2828 63.9595 48.5762 64.1147 48.8776 64.1147C49.0289 64.1147 49.1821 64.0756 49.322 63.9935C49.7405 63.7476 49.8804 63.2091 49.6347 62.7905L49.5163 62.589C48.8272 61.4162 48.4128 60.1031 48.2989 58.7532C48.8133 58.6721 49.3235 58.5753 49.8286 58.4608C49.9759 60.1247 50.6631 61.6934 51.802 62.9359C51.9753 63.1249 52.2123 63.2209 52.4501 63.2209C52.6623 63.2209 52.875 63.1445 53.0436 62.9899C53.4014 62.6619 53.4257 62.106 53.0977 61.7482C52.1515 60.7159 51.6108 59.3907 51.5606 57.9969C51.9403 57.8794 52.3165 57.752 52.6893 57.6152C52.9952 59.4946 54.1627 61.1359 55.8887 62.0363L55.9411 62.0637C56.0709 62.1313 56.2097 62.1634 56.3466 62.1634C56.6637 62.1634 56.9698 61.9912 57.1265 61.6906C57.3509 61.2602 57.1839 60.7294 56.7534 60.5051L56.7013 60.4778C55.3483 59.7721 54.477 58.4267 54.3762 56.9197C54.7217 56.7611 55.0631 56.594 55.4006 56.4184C56.0445 58.1023 57.3621 59.4521 59.0718 60.1304L59.3441 60.2384C59.4505 60.2805 59.5601 60.3006 59.6679 60.3006C60.0176 60.3006 60.3483 60.0902 60.485 59.7455C60.664 59.2943 60.4433 58.7836 59.992 58.6046L59.7199 58.4967C58.3875 57.968 57.3829 56.8799 56.9538 55.5332C57.2628 55.341 57.5675 55.1411 57.8681 54.934C58.7315 56.1196 59.951 56.9975 61.3678 57.4372L61.4022 57.4478C61.4886 57.4745 61.576 57.4872 61.6619 57.4872C62.0372 57.4872 62.3847 57.2448 62.5012 56.8675C62.6447 56.4038 62.385 55.9117 61.9211 55.7685Z" fill="black"/>
</g>
<circle cx="46.5" cy="46.5" r="46" stroke="#1B1B1B"/>
<defs>
<clipPath id="clip0">
<rect width="45" height="45" fill="white" transform="translate(24 26)"/>
</clipPath>
</defs>
</svg>
