<svg width="93" height="93" viewBox="0 0 93 93" fill="none" xmlns="http://www.w3.org/2000/svg">
<circle cx="46.5" cy="46.5" r="46" stroke="#1B1B1B"/>
<g clip-path="url(#clip0)">
<path d="M44.8741 32.241H44.8633C44.3779 32.241 43.9844 32.6345 43.9844 33.1199C43.9844 33.6053 44.3779 33.9988 44.8633 33.9988H44.8741C45.3595 33.9988 45.753 33.6053 45.753 33.1199C45.753 32.6345 45.3595 32.241 44.8741 32.241Z" fill="black"/>
<path d="M69.9239 40.0907C69.8607 39.6094 69.4192 39.2707 68.938 39.3338C68.4567 39.397 68.1178 39.8385 68.1811 40.3197C68.3465 41.5784 68.1719 42.8286 67.6875 43.9654C67.1774 43.34 66.298 42.3264 65.0755 41.1453C65.7722 39.6869 66.0348 38.0565 65.8191 36.4149C65.7559 35.9336 65.3145 35.595 64.8332 35.658C64.3519 35.7212 64.013 36.1626 64.0763 36.6438C64.2226 37.7577 64.091 38.8648 63.7037 39.8853C63.5092 39.7155 63.309 39.5442 63.1026 39.3718C62.3687 38.7584 61.5225 38.1029 60.574 37.4473C60.9703 36.3125 61.115 35.0714 60.948 33.8005C60.8848 33.3192 60.4436 32.9805 59.9621 33.0436C59.4808 33.1068 59.1419 33.5482 59.2052 34.0294C59.315 34.8648 59.2514 35.6834 59.0438 36.4499C58.0412 35.835 56.9488 35.2397 55.7743 34.6995C55.9823 33.7945 56.0306 32.8501 55.9059 31.9014C55.8427 31.4202 55.4017 31.0814 54.92 31.1445C54.4387 31.2077 54.0998 31.6492 54.1631 32.1304C54.2461 32.7622 54.2303 33.3914 54.1227 34.0011C52.5638 33.3986 50.8827 32.9078 49.0923 32.601C48.6136 32.519 48.1595 32.8405 48.0776 33.3189C47.9956 33.7973 48.3171 34.2516 48.7955 34.3336C50.4938 34.6245 52.0891 35.0943 53.5682 35.6714C53.3955 36.0144 53.19 36.3439 52.9511 36.6552C51.992 37.9045 50.6171 38.72 49.0658 38.9679C47.573 38.5274 45.9914 38.247 44.3519 38.2144C44.2462 38.2114 44.1402 38.2094 44.0337 38.2094C43.9278 38.2094 43.8224 38.2114 43.7172 38.2144C38.4006 38.3186 33.6998 41.017 30.6695 43.2893C29.9625 43.8196 29.3202 44.3451 28.7487 44.8407C29.1399 44.1418 29.591 43.4006 30.1051 42.6479C33.1982 38.1198 36.9872 35.3351 41.367 34.3715C41.841 34.2672 42.1408 33.7984 42.0365 33.3242C41.9321 32.8501 41.4629 32.5503 40.9892 32.6547C38.3149 33.2431 35.8079 34.4652 33.5378 36.2872C31.7387 37.7309 30.0856 39.552 28.6243 41.6993C26.2212 45.2307 25.1493 48.4366 25.0481 48.7488C25.0021 48.8664 25.0001 48.9466 25 49.0265C25 49.0294 25 49.0324 25 49.0354C25 49.0356 25 49.0359 25 49.0361C25 49.398 25.1704 49.5955 25.5822 50.0731C25.7984 50.3238 26.1639 50.7328 26.6777 51.2576C27.5241 52.1221 28.9036 53.4313 30.6683 54.7589C33.7032 57.0419 38.4071 59.7526 43.7155 59.8579C43.8212 59.861 43.9272 59.8629 44.0336 59.8629C44.1396 59.8629 44.245 59.861 44.3502 59.8579C49.6668 59.7537 54.3675 57.0553 57.3978 54.7831C59.1749 53.4505 60.5499 52.1442 61.3906 51.283C62.0366 50.621 62.4331 50.1766 62.6772 49.864C64.878 49.5014 66.827 48.3366 68.1902 46.5611C69.613 44.7079 70.2287 42.4101 69.9239 40.0907ZM59.8033 39.0524C60.5937 39.6087 61.3052 40.1621 61.9307 40.6831C62.2485 40.9478 62.5513 41.2103 62.8402 41.4685C62.8105 41.509 62.782 41.5503 62.7513 41.5903C61.6896 42.9734 60.162 43.8701 58.4399 44.1288C58.1099 43.8602 57.7633 43.5874 57.3992 43.3135C56.942 42.9696 56.4461 42.6159 55.9168 42.2629C57.5501 41.6345 58.9028 40.4905 59.8033 39.0524ZM54.3455 37.7255C54.6752 37.2961 54.9558 36.8397 55.1875 36.3637C56.3226 36.8938 57.3752 37.4785 58.338 38.0799C57.3926 39.6155 55.7903 40.7299 53.8673 40.9826C53.8539 40.9844 53.8411 40.9875 53.8279 40.9898C53.1543 40.6174 52.4445 40.2615 51.7027 39.9359C52.7245 39.4114 53.6257 38.663 54.3455 37.7255ZM32.0233 53.5755C29.5446 51.7556 27.7552 49.8867 27.0012 49.0273C27.7387 48.1766 29.5258 46.297 32.0523 44.4528C33.0587 43.7182 34.2659 42.9334 35.6219 42.2286C34.1128 44.0897 33.2072 46.4589 33.2072 49.0361C33.2072 51.6027 34.1055 53.9629 35.6034 55.8206C34.2439 55.1091 33.0332 54.3169 32.0233 53.5755ZM44.2985 58.1008C44.2103 58.1025 44.1223 58.1049 44.0339 58.1049C43.9449 58.1049 43.8564 58.1024 43.7677 58.1007C38.8898 57.9594 34.965 53.9475 34.965 49.0359C34.965 44.1238 38.8906 40.1116 43.7694 39.9711C43.8575 39.9694 43.9455 39.967 44.0339 39.967C44.1229 39.967 44.2114 39.9695 44.3001 39.9712C49.178 40.1126 53.1028 44.1244 53.1028 49.036C53.1028 53.9481 49.1772 57.9604 44.2985 58.1008ZM56.0154 53.6193C55.0091 54.3539 53.802 55.1387 52.4459 55.8436C53.955 53.9824 54.8606 51.6132 54.8606 49.0361C54.8606 46.4695 53.9624 44.1093 52.4645 42.2517C53.8239 42.9632 55.0347 43.7553 56.0445 44.4968C58.5231 46.3166 60.3125 48.1855 61.0666 49.0449C60.3292 49.8955 58.5421 51.7751 56.0154 53.6193ZM62.5697 48.0971C62.5427 48.0656 62.5148 48.0333 62.4854 47.9991C62.2692 47.7484 61.9036 47.3394 61.3898 46.8146C61.04 46.4573 60.5979 46.0233 60.0765 45.5442C61.6758 45.024 63.0808 44.0388 64.1296 42.6809C65.5983 44.1341 66.4936 45.2785 66.7231 45.5811C65.6757 46.9004 64.217 47.7823 62.5697 48.0971Z" fill="black"/>
<path d="M49.8864 46.639C49.8864 44.7334 48.3361 43.1832 46.4306 43.1832C46.068 43.1832 45.7185 43.2397 45.3899 43.3436C44.9452 43.2376 44.4902 43.1832 44.0335 43.1832C40.8062 43.1832 38.1807 45.8089 38.1807 49.036C38.1807 52.2632 40.8063 54.8888 44.0335 54.8888C47.2606 54.8888 49.8863 52.2633 49.8863 49.036C49.8863 48.5791 49.8318 48.1243 49.7259 47.6795C49.8299 47.351 49.8864 47.0015 49.8864 46.639ZM44.0335 53.1311C41.7755 53.1311 39.9385 51.2941 39.9385 49.0361C39.9385 46.9957 41.4385 45.2995 43.3936 44.9914C43.1267 45.4815 42.9749 46.0428 42.9749 46.639C42.9749 48.5445 44.5251 50.0947 46.4306 50.0947C47.0268 50.0947 47.5882 49.9429 48.0782 49.676C47.77 51.631 46.0738 53.1311 44.0335 53.1311ZM46.4306 48.3368C45.4944 48.3368 44.7327 47.5751 44.7327 46.6389C44.7327 45.7027 45.4944 44.9409 46.4306 44.9409C47.3668 44.9409 48.1285 45.7027 48.1285 46.6389C48.1285 47.5751 47.3668 48.3368 46.4306 48.3368Z" fill="black"/>
</g>
<defs>
<clipPath id="clip0">
<rect width="45" height="45" fill="white" transform="translate(25 23)"/>
</clipPath>
</defs>
</svg>
