<svg width="51" height="51" viewBox="0 0 51 51" fill="none" xmlns="http://www.w3.org/2000/svg">
<path d="M39.0095 21.6888V13.6123C39.0312 9.95781 37.5715 6.44393 34.9659 3.88149C32.4467 1.37312 29.149 0 25.6568 0C25.6027 0 25.5378 0 25.4838 0C18.0343 0.010812 11.9796 6.10876 11.9796 13.6123V21.6888C9.16853 22.024 7.11426 24.381 7.11426 27.2353V45.3778C7.11426 48.4592 9.57938 51 12.6608 51H38.3392C41.4206 51 43.8857 48.4592 43.8857 45.3778V27.2353C43.8749 24.3918 41.8206 22.024 39.0095 21.6888ZM14.1312 13.6123H14.142C14.142 7.29807 19.2345 2.12996 25.4946 2.12996H25.5054C28.4787 2.11914 31.333 3.29765 33.4414 5.39517C35.6362 7.56837 36.858 10.5308 36.8363 13.6123V21.6996H34.4577V13.6123C34.4793 11.1579 33.5062 8.80093 31.7655 7.07102C30.1221 5.4276 27.8948 4.49777 25.5703 4.49777H25.5054C20.5319 4.49777 16.5098 8.58469 16.5098 13.6014V21.6996H14.1312V13.6123ZM32.3061 13.6123V21.6996H18.6831V13.6123C18.6831 9.78482 21.732 6.67098 25.5162 6.67098H25.5811C27.3326 6.67098 29.0193 7.37375 30.2627 8.61713C31.5817 9.93619 32.3277 11.7418 32.3061 13.6123ZM41.8206 45.4102C41.8206 47.3023 40.2853 48.8376 38.3932 48.8376H12.704C10.8119 48.8376 9.27665 47.3023 9.27665 45.4102V27.2894C9.27665 25.3973 10.8119 23.862 12.704 23.862H38.3932C40.2853 23.862 41.8206 25.3973 41.8206 27.2894V45.4102Z" fill="#1B1B1B"/>
<path d="M29.2356 35.6793C28.7599 34.0035 27.2354 32.8574 25.4947 32.8574C23.3431 32.8574 21.5916 34.5981 21.5916 36.7605C21.5916 38.5013 22.7376 40.0258 24.4135 40.5015V43.5288C24.4135 44.1235 24.9 44.61 25.4947 44.61C26.0893 44.61 26.5759 44.1235 26.5759 43.5288V40.5015C28.6409 39.9068 29.8411 37.7444 29.2356 35.6793ZM25.4947 38.4905C24.5324 38.4905 23.7539 37.712 23.7539 36.7497C23.7539 35.7875 24.5324 35.009 25.4947 35.009C26.4569 35.009 27.2354 35.7875 27.2354 36.7497C27.2354 37.712 26.4569 38.4905 25.4947 38.4905Z" fill="#1B1B1B"/>
</svg>
