<svg width="51" height="51" viewBox="0 0 51 51" fill="none" xmlns="http://www.w3.org/2000/svg">
<g clip-path="url(#clip0)">
<path d="M25.483 50.9999C25.3151 50.9999 25.1451 50.9595 24.9921 50.8788L0.571625 38.1288C0.221 37.946 0 37.5827 0 37.1874V13.2812C0 12.9135 0.19125 12.5714 0.503625 12.378C0.816 12.1847 1.20912 12.1677 1.53637 12.3313L25.9569 24.55C26.316 24.7307 26.5434 25.0983 26.5434 25.4999V49.9374C26.5434 50.3093 26.35 50.6535 26.0312 50.8469C25.8655 50.9489 25.6742 50.9999 25.483 50.9999ZM2.125 36.5435L24.4205 48.1843V26.1565L2.125 15.0003V36.5435Z" fill="#1B1B1B"/>
<path d="M25.5171 51C25.3258 51 25.1346 50.949 24.9667 50.847C24.6501 50.6536 24.4546 50.3094 24.4546 49.9375V25.5C24.4546 25.0984 24.682 24.7308 25.0411 24.5502L49.4616 12.3314C49.7867 12.1657 50.182 12.1827 50.4943 12.3782C50.8088 12.5715 51.0001 12.9137 51.0001 13.2813V37.1875C51.0001 37.5828 50.7791 37.9461 50.4285 38.1289L26.008 50.8789C25.855 50.9596 25.685 51 25.5171 51ZM26.5796 26.1567V48.1844L48.8751 36.5436V15.0004L26.5796 26.1567ZM49.9376 37.1875H49.9588H49.9376Z" fill="#1B1B1B"/>
<path d="M1.06178 14.3442C0.670779 14.3442 0.296779 14.1295 0.109779 13.7577C-0.153721 13.2328 0.0609038 12.5953 0.585779 12.3318L25.0403 0.113027C25.3399 -0.0357227 25.6927 -0.0357227 25.9902 0.113027L50.4107 12.3318C50.9355 12.5953 51.148 13.2328 50.8867 13.7577C50.6232 14.2825 49.9878 14.4929 49.4608 14.2337L25.5163 2.25078L1.53778 14.2315C1.38478 14.308 1.22328 14.3442 1.06178 14.3442Z" fill="#1B1B1B"/>
<path d="M38.25 31.8749C37.6635 31.8749 37.1875 31.3989 37.1875 30.8124V19.7815L13.3535 7.85598C12.8286 7.59461 12.6161 6.95498 12.8796 6.43011C13.1431 5.90523 13.7806 5.69486 14.3055 5.95411L38.726 18.1729C39.0851 18.3556 39.3125 18.7232 39.3125 19.1249V30.8124C39.3125 31.3989 38.8365 31.8749 38.25 31.8749Z" fill="#1B1B1B"/>
</g>
<defs>
<clipPath id="clip0">
<rect width="51" height="51" fill="white"/>
</clipPath>
</defs>
</svg>
