<svg width="51" height="51" viewBox="0 0 51 51" fill="none" xmlns="http://www.w3.org/2000/svg">
<path d="M41.6952 33.5378C40.449 33.5378 39.2651 34.0259 38.372 34.9086C37.4789 35.8017 36.9805 36.9648 36.9805 38.211C36.9805 39.4572 37.4685 40.6203 38.372 41.5134C39.2755 42.3961 40.449 42.8842 41.6952 42.8842C44.2498 42.8842 46.3268 40.7865 46.3268 38.211C46.3268 35.6356 44.2498 33.5378 41.6952 33.5378ZM41.6952 40.8072C40.2621 40.8072 39.0574 39.6234 39.0574 38.211C39.0574 36.7987 40.2621 35.6148 41.6952 35.6148C43.1075 35.6148 44.2498 36.7779 44.2498 38.211C44.2498 39.6441 43.1075 40.8072 41.6952 40.8072ZM42.8998 17.9709C42.7129 17.7944 42.4637 17.7009 42.204 17.7009H36.8766C36.3054 17.7009 35.8381 18.1683 35.8381 18.7394V27.255C35.8381 27.8262 36.3054 28.2935 36.8766 28.2935H45.3299C45.901 28.2935 46.3684 27.8262 46.3684 27.255V21.5537C46.3684 21.2629 46.2437 20.9826 46.0257 20.7852L42.8998 17.9709ZM44.2914 26.2165H37.9151V19.7675H41.799L44.2914 22.0107V26.2165ZM16.3354 33.5378C15.0892 33.5378 13.9053 34.0259 13.0122 34.9086C12.1191 35.8017 11.6206 36.9648 11.6206 38.211C11.6206 39.4572 12.1087 40.6203 13.0122 41.5134C13.9157 42.3961 15.0892 42.8842 16.3354 42.8842C18.89 42.8842 20.967 40.7865 20.967 38.211C20.967 35.6356 18.89 33.5378 16.3354 33.5378ZM16.3354 40.8072C14.9023 40.8072 13.6976 39.6234 13.6976 38.211C13.6976 36.7987 14.9023 35.6148 16.3354 35.6148C17.7477 35.6148 18.89 36.7779 18.89 38.211C18.89 39.6441 17.7477 40.8072 16.3354 40.8072ZM9.40867 34.8152H7.32132V32.0528C7.32132 31.4816 6.854 31.0143 6.28283 31.0143C5.71167 31.0143 5.24435 31.4816 5.24435 32.0528V35.8537C5.24435 36.4248 5.71167 36.8921 6.28283 36.8921H9.40867C9.97984 36.8921 10.4472 36.4248 10.4472 35.8537C10.4472 35.2825 9.97984 34.8152 9.40867 34.8152ZM14.6738 29.1554C14.6738 28.5843 14.2065 28.1169 13.6353 28.1169H1.03849C0.467318 28.1169 0 28.5843 0 29.1554C0 29.7266 0.467318 30.1939 1.03849 30.1939H13.6353C14.2065 30.1939 14.6738 29.737 14.6738 29.1554ZM3.14661 25.4065L15.7434 25.4792C16.3146 25.4792 16.7819 25.0223 16.7923 24.4511C16.8027 23.8695 16.3354 23.4022 15.7642 23.4022L3.16738 23.3295C3.15699 23.3295 3.15699 23.3295 3.15699 23.3295C2.58583 23.3295 2.11851 23.7865 2.11851 24.3576C2.10812 24.9392 2.57544 25.4065 3.14661 25.4065ZM5.26512 20.6918H17.8619C18.4331 20.6918 18.9004 20.2245 18.9004 19.6533C18.9004 19.0821 18.4331 18.6148 17.8619 18.6148H5.26512C4.69395 18.6148 4.22663 19.0821 4.22663 19.6533C4.22663 20.2245 4.69395 20.6918 5.26512 20.6918ZM50.6158 19.2898L43.1802 13.1316C42.9933 12.9758 42.7648 12.8928 42.5156 12.8928H33.7715V9.15421C33.7715 8.58304 33.3042 8.11572 32.733 8.11572H6.28283C5.71167 8.11572 5.24435 8.58304 5.24435 9.15421V16.7559C5.24435 17.3271 5.71167 17.7944 6.28283 17.7944C6.854 17.7944 7.32132 17.3271 7.32132 16.7559V10.1927H31.7049V34.8152H23.1894C22.6182 34.8152 22.1509 35.2825 22.1509 35.8537C22.1509 36.4248 22.6182 36.8921 23.1894 36.8921H35.8693C36.4404 36.8921 36.9078 36.4248 36.9078 35.8537C36.9078 35.2825 36.4404 34.8152 35.8693 34.8152H33.7819V14.9697H42.1521L48.923 20.5775L48.8503 34.7944H47.7703C47.1991 34.7944 46.7318 35.2617 46.7318 35.8329C46.7318 36.4041 47.1991 36.8714 47.7703 36.8714H49.8784C50.4496 36.8714 50.9169 36.4144 50.9169 35.8433L51 20.0998C50.9896 19.7883 50.8546 19.4871 50.6158 19.2898Z" fill="#1B1B1B"/>
</svg>
