<svg width="45" height="45" viewBox="0 0 45 45" fill="none" xmlns="http://www.w3.org/2000/svg">
<path d="M32.871 17.9327C32.5271 17.5898 31.9704 17.5898 31.6275 17.9327C31.2837 18.2766 31.2837 18.8333 31.6275 19.1771C31.9704 19.52 32.5271 19.52 32.871 19.1771C33.2139 18.8333 33.2139 18.2766 32.871 17.9327Z" fill="black" fill-opacity="0.56"/>
<path d="M24.1209 35.6782C23.6355 35.6782 23.2415 36.0722 23.2415 36.5577C23.2415 37.0431 23.6355 37.4371 24.1209 37.4371C24.6063 37.4371 25.0003 37.0431 25.0003 36.5577C25.0003 36.0721 24.6063 35.6782 24.1209 35.6782Z" fill="black" fill-opacity="0.56"/>
<path d="M22.9838 15.1817C22.6408 14.8379 22.0832 14.8379 21.7403 15.1817C21.3965 15.5246 21.3965 16.0822 21.7403 16.4252C22.0832 16.769 22.6408 16.769 22.9838 16.4252C23.3276 16.0822 23.3276 15.5247 22.9838 15.1817Z" fill="black" fill-opacity="0.56"/>
<path d="M29.1398 8.96362C28.7965 8.62023 28.2396 8.62023 27.8961 8.96344L24.1956 12.6631C23.8522 13.0065 23.8521 13.5633 24.1954 13.9068C24.3671 14.0786 24.5923 14.1645 24.8173 14.1645C25.0423 14.1645 25.2674 14.0786 25.4391 13.907L29.1396 10.2074C29.483 9.86396 29.4831 9.30727 29.1398 8.96362Z" fill="black" fill-opacity="0.56"/>
<path d="M37.8455 7.72029C38.0172 7.89194 38.2423 7.9779 38.4673 7.9779C38.6923 7.9779 38.9174 7.89194 39.0891 7.72029C39.4325 7.37691 39.4325 6.82003 39.0891 6.47656L32.8712 0.257793C32.5279 -0.0856819 31.9711 -0.0860335 31.6275 0.257354C31.284 0.600565 31.2838 1.15744 31.6271 1.501L32.2493 2.12326L29.7614 4.61056L29.1396 3.98882C28.9747 3.82394 28.751 3.73122 28.5178 3.73122C28.2845 3.73122 28.0609 3.82394 27.896 3.98882L16.703 15.1818C16.3596 15.5252 16.3596 16.0821 16.703 16.4256L17.3247 17.0473L14.216 20.1568C13.8726 20.5002 13.8727 21.0569 14.216 21.4004L17.9464 25.1308C18.1182 25.3025 18.3433 25.3884 18.5683 25.3884C18.7933 25.3884 19.0184 25.3025 19.19 25.1309L22.2995 22.0222L22.9211 22.6439C23.0929 22.8155 23.3179 22.9015 23.5429 22.9015C23.7679 22.9015 23.993 22.8155 24.1648 22.6439L27.2421 19.5667L29.1088 21.632C29.1187 21.643 29.1289 21.6537 29.1394 21.6642C29.7854 22.3102 30.607 22.7327 31.4963 22.8864C31.8329 23.8015 32.0353 24.9511 32.0353 26.0048C32.0353 29.2448 30.0765 32.1234 27.1081 33.3334C26.2926 32.5763 25.2385 32.1606 24.1206 32.1606C22.9985 32.1606 21.9406 32.5825 21.1329 33.3334C19.6716 32.7351 18.4244 31.7099 17.5497 30.4018H20.6031C21.0888 30.4018 21.4825 30.0079 21.4825 29.5224C21.4825 29.0368 21.0888 28.6429 20.6031 28.6429H16.0689H10.5137H6.53275C6.04707 28.6429 5.65332 29.0368 5.65332 29.5224C5.65332 30.0079 6.04707 30.4018 6.53275 30.4018H9.8507C11.0457 34.295 13.7382 37.5777 17.1622 39.4596H13.5679C12.3921 39.4596 11.2775 39.975 10.4297 40.9106C9.62974 41.7924 9.17095 42.9623 9.17095 44.1204C9.17095 44.606 9.5647 44.9998 10.0504 44.9998H38.1912C38.6768 44.9998 39.0706 44.606 39.0706 44.1204C39.0706 42.9631 38.6121 41.7931 37.8125 40.9107C36.9646 39.9749 35.8498 39.4596 34.6736 39.4596H31.1067C35.8686 36.8636 39.0706 31.6597 39.0706 26.0047C39.0706 22.9041 38.1227 19.7488 36.4668 17.3199C36.2625 16.6214 35.8886 15.982 35.3744 15.4622L33.4622 13.3471L35.358 11.4506C35.7013 11.1071 35.7012 10.5504 35.3579 10.207L34.7363 9.58532L37.2232 7.09785L37.8455 7.72029ZM18.5684 23.2654L16.0815 20.7785L18.5684 18.291L21.0559 20.7785L18.5684 23.2654ZM21.4827 36.5575C21.4827 35.9514 21.6826 35.3816 22.0609 34.9098C22.5652 34.2803 23.316 33.9193 24.1209 33.9193C24.8252 33.9193 25.4875 34.1939 25.986 34.6924C26.0521 34.7585 26.1187 34.8329 26.1811 34.9098C26.5592 35.3817 26.7591 35.9515 26.7591 36.5575V39.4596H21.4827V36.5575ZM11.6997 30.4018H15.5132C16.5064 32.3445 18.1251 33.8936 20.0926 34.7985C19.852 35.3504 19.7239 35.95 19.7239 36.5575V38.6984C16.0546 37.3594 13.0491 34.2538 11.6997 30.4018ZM34.6737 41.2184C35.7802 41.2184 36.8074 42.1066 37.1719 43.241H11.0698C11.2036 42.8221 11.4298 42.426 11.7328 42.0921C12.2432 41.5287 12.895 41.2184 13.5681 41.2184H34.6737ZM36.194 20.4889C36.9162 22.1964 37.3119 24.1101 37.3119 26.0048C37.3119 31.6827 33.6755 36.8442 28.5179 38.7028V36.5576C28.5179 35.9506 28.3899 35.3514 28.1491 34.7993C31.5651 33.2368 33.7943 29.8265 33.7943 26.0048C33.7943 24.9375 33.6249 23.8126 33.3267 22.8191C34.0891 22.628 34.7881 22.234 35.3579 21.6642C35.704 21.3181 35.984 20.9193 36.194 20.4889ZM34.0838 16.6572C34.0936 16.6682 34.1039 16.6789 34.1143 16.6893C34.4528 17.0277 34.6926 17.4508 34.8081 17.9125C35.035 18.8216 34.7756 19.7591 34.1143 20.4204C33.6164 20.9184 32.9536 21.1926 32.2483 21.1926C32.214 21.1926 32.1798 21.1919 32.1456 21.1907C31.4866 21.1649 30.8667 20.8967 30.3978 20.4349L28.4875 18.3213L32.217 14.5924L34.0838 16.6572ZM31.6273 12.6949C31.627 12.6951 31.6267 12.6955 31.6265 12.6958L26.6536 17.6679C26.6533 17.6682 26.6529 17.6684 26.6527 17.6687L23.5432 20.7782L22.9216 20.1565L19.1904 16.4251L18.5687 15.8036L28.5179 5.85429L29.1385 6.47489C29.1388 6.47524 29.1391 6.47559 29.1394 6.47585C29.1396 6.47612 29.1401 6.47647 29.1403 6.47673L32.8701 10.2064C32.8704 10.2067 32.8706 10.207 32.8708 10.2072C32.8711 10.2075 32.8714 10.2077 32.8716 10.2079L33.4926 10.8288L31.6273 12.6949ZM33.4927 8.34168L31.0052 5.85421L33.493 3.36709L35.9797 5.85412L33.4927 8.34168Z" fill="black" fill-opacity="0.56"/>
</svg>
