<svg width="45" height="45" viewBox="0 0 45 45" fill="none" xmlns="http://www.w3.org/2000/svg">
<g clip-path="url(#clip0)">
<path d="M19.8737 9.24097H19.8629C19.3775 9.24097 18.984 9.63445 18.984 10.1199C18.984 10.6053 19.3775 10.9988 19.8629 10.9988H19.8737C20.3591 10.9988 20.7526 10.6053 20.7526 10.1199C20.7526 9.63445 20.3591 9.24097 19.8737 9.24097Z" fill="white"/>
<path d="M44.9238 17.0907C44.8606 16.6094 44.4191 16.2707 43.9379 16.3338C43.4566 16.397 43.1177 16.8385 43.181 17.3197C43.3464 18.5784 43.1718 19.8286 42.6874 20.9654C42.1773 20.34 41.2978 19.3264 40.0754 18.1453C40.7721 16.6869 41.0347 15.0565 40.8189 13.4149C40.7557 12.9336 40.3144 12.595 39.8331 12.658C39.3518 12.7212 39.0129 13.1626 39.0762 13.6438C39.2225 14.7577 39.0909 15.8648 38.7036 16.8853C38.5091 16.7155 38.3089 16.5442 38.1025 16.3718C37.3686 15.7584 36.5224 15.1029 35.5739 14.4473C35.9702 13.3125 36.1149 12.0714 35.9479 10.8005C35.8847 10.3192 35.4435 9.98047 34.962 10.0436C34.4807 10.1068 34.1418 10.5482 34.2051 11.0294C34.3149 11.8648 34.2513 12.6834 34.0436 13.4499C33.0411 12.835 31.9487 12.2397 30.7742 11.6995C30.9821 10.7945 31.0305 9.85013 30.9058 8.90144C30.8426 8.42015 30.4015 8.08142 29.9199 8.14453C29.4386 8.20772 29.0997 8.64919 29.163 9.13039C29.246 9.76215 29.2301 10.3914 29.1226 11.0011C27.5636 10.3986 25.8826 9.90778 24.0921 9.60105C23.6135 9.51896 23.1594 9.84055 23.0775 10.3189C22.9955 10.7973 23.317 11.2516 23.7953 11.3336C25.4937 11.6245 27.0889 12.0943 28.5681 12.6714C28.3954 13.0144 28.1899 13.3439 27.951 13.6552C26.9918 14.9045 25.617 15.72 24.0657 15.9679C22.5729 15.5274 20.9913 15.247 19.3518 15.2144C19.246 15.2114 19.14 15.2094 19.0336 15.2094C18.9277 15.2094 18.8222 15.2114 18.717 15.2144C13.4004 15.3186 8.69971 18.017 5.66943 20.2893C4.96235 20.8196 4.32005 21.3451 3.74858 21.8407C4.13978 21.1418 4.59084 20.4006 5.105 19.6479C8.19804 15.1198 11.9871 12.3351 16.3668 11.3715C16.8409 11.2672 17.1406 10.7984 17.0364 10.3242C16.932 9.85013 16.4628 9.55033 15.9891 9.65466C13.3148 10.2431 10.8078 11.4652 8.53765 13.2872C6.73862 14.7309 5.08548 16.552 3.62422 18.6993C1.22112 22.2307 0.149204 25.4366 0.047954 25.7488C0.0019873 25.8664 -3.41798e-05 25.9466 -0.00012207 26.0265C-0.00012207 26.0294 -0.00012207 26.0324 -0.00012207 26.0354C-0.00012207 26.0356 -0.00012207 26.0359 -0.00012207 26.0361C-0.00012207 26.398 0.170298 26.5955 0.582064 27.0731C0.798275 27.3238 1.16381 27.7328 1.67762 28.2576C2.524 29.1221 3.90344 30.4313 5.6682 31.7589C8.70305 34.0419 13.407 36.7526 18.7154 36.8579C18.8211 36.861 18.9271 36.8629 19.0335 36.8629C19.1394 36.8629 19.2449 36.861 19.3501 36.8579C24.6667 36.7537 29.3674 34.0553 32.3977 31.7831C34.1748 30.4505 35.5498 29.1442 36.3905 28.283C37.0365 27.621 37.433 27.1766 37.6771 26.864C39.8779 26.5014 41.8269 25.3366 43.19 23.5611C44.6129 21.7079 45.2286 19.4101 44.9238 17.0907ZM34.8032 16.0524C35.5936 16.6087 36.3051 17.1621 36.9306 17.6831C37.2484 17.9478 37.5512 18.2103 37.8401 18.4685C37.8104 18.509 37.7819 18.5503 37.7512 18.5903C36.6895 19.9734 35.1619 20.8701 33.4398 21.1288C33.1098 20.8602 32.7632 20.5874 32.399 20.3135C31.9419 19.9696 31.4459 19.6159 30.9167 19.2629C32.5499 18.6345 33.9027 17.4905 34.8032 16.0524ZM29.3454 14.7255C29.675 14.2961 29.9557 13.8397 30.1874 13.3637C31.3225 13.8938 32.375 14.4785 33.3379 15.0799C32.3924 16.6155 30.7902 17.7299 28.8671 17.9826C28.8538 17.9844 28.841 17.9875 28.8278 17.9898C28.1542 17.6174 27.4444 17.2615 26.7026 16.9359C27.7244 16.4114 28.6256 15.663 29.3454 14.7255ZM7.0232 30.5755C4.54452 28.7556 2.75507 26.8867 2.00106 26.0273C2.73854 25.1766 4.52571 23.297 7.05221 21.4528C8.05855 20.7182 9.26573 19.9334 10.6218 19.2286C9.11271 21.0897 8.20709 23.4589 8.20709 26.0361C8.20709 28.6027 9.10533 30.9629 10.6032 32.8206C9.24376 32.1091 8.03307 31.3169 7.0232 30.5755ZM19.2983 35.1008C19.2102 35.1025 19.1222 35.1049 19.0338 35.1049C18.9448 35.1049 18.8562 35.1024 18.7676 35.1007C13.8896 34.9594 9.9649 30.9475 9.9649 26.0359C9.9649 21.1238 13.8905 17.1116 18.7692 16.9711C18.8574 16.9694 18.9454 16.967 19.0338 16.967C19.1228 16.967 19.2113 16.9695 19.3 16.9712C24.1778 17.1126 28.1027 21.1244 28.1027 26.036C28.1027 30.9481 24.177 34.9604 19.2983 35.1008ZM31.0153 30.6193C30.0089 31.3539 28.8018 32.1387 27.4458 32.8436C28.9549 30.9824 29.8605 28.6132 29.8605 26.0361C29.8605 23.4695 28.9622 21.1093 27.4643 19.2517C28.8238 19.9632 30.0346 20.7553 31.0444 21.4968C33.523 23.3166 35.3124 25.1855 36.0664 26.0449C35.329 26.8955 33.542 28.7751 31.0153 30.6193ZM37.5695 25.0971C37.5426 25.0656 37.5147 25.0333 37.4852 24.9991C37.269 24.7484 36.9035 24.3394 36.3897 23.8146C36.0399 23.4573 35.5978 23.0233 35.0763 22.5442C36.6757 22.024 38.0807 21.0388 39.1295 19.6809C40.5982 21.1341 41.4935 22.2785 41.723 22.5811C40.6756 23.9004 39.2169 24.7823 37.5695 25.0971Z" fill="white"/>
<path d="M24.8866 23.6389C24.8866 21.7333 23.3364 20.1831 21.4308 20.1831C21.0683 20.1831 20.7187 20.2395 20.3901 20.3435C19.9454 20.2375 19.4905 20.1831 19.0337 20.1831C15.8065 20.1831 13.1809 22.8087 13.1809 26.0359C13.1809 29.2631 15.8065 31.8887 19.0337 31.8887C22.2609 31.8887 24.8865 29.2632 24.8865 26.0359C24.8865 25.579 24.832 25.1241 24.7261 24.6794C24.8302 24.3509 24.8866 24.0013 24.8866 23.6389ZM19.0337 30.131C16.7757 30.131 14.9387 28.294 14.9387 26.036C14.9387 23.9956 16.4387 22.2994 18.3939 21.9913C18.1269 22.4814 17.9752 23.0427 17.9752 23.6389C17.9752 25.5444 19.5254 27.0945 21.4308 27.0945C22.027 27.0945 22.5884 26.9428 23.0784 26.6758C22.7703 28.6309 21.0741 30.131 19.0337 30.131ZM21.4308 25.3366C20.4946 25.3366 19.733 24.575 19.733 23.6388C19.733 22.7026 20.4946 21.9408 21.4308 21.9408C22.367 21.9408 23.1288 22.7026 23.1288 23.6388C23.1288 24.575 22.367 25.3366 21.4308 25.3366Z" fill="white"/>
</g>
<defs>
<clipPath id="clip0">
<rect width="45" height="45" fill="white"/>
</clipPath>
</defs>
</svg>
