<svg width="25" height="21" viewBox="0 0 25 21" fill="none" xmlns="http://www.w3.org/2000/svg">
<line y1="3.60022" x2="25" y2="3.60022" stroke="black" stroke-opacity="0.56"/>
<line y1="10.4338" x2="25" y2="10.4338" stroke="black" stroke-opacity="0.56"/>
<line y1="17.2674" x2="25" y2="17.2674" stroke="black" stroke-opacity="0.56"/>
<ellipse cx="7.23674" cy="3.41682" rx="3.28947" ry="3.41682" fill="white"/>
<path d="M10.0262 3.41682C10.0262 5.0458 8.75959 6.33363 7.23674 6.33363C5.71388 6.33363 4.44727 5.0458 4.44727 3.41682C4.44727 1.78783 5.71388 0.5 7.23674 0.5C8.75959 0.5 10.0262 1.78783 10.0262 3.41682Z" stroke="black" stroke-opacity="0.56"/>
<ellipse cx="16.4474" cy="17.0841" rx="3.28947" ry="3.41682" fill="white"/>
<path d="M19.2369 17.0841C19.2369 18.7131 17.9703 20.0009 16.4474 20.0009C14.9246 20.0009 13.658 18.7131 13.658 17.0841C13.658 15.4551 14.9246 14.1673 16.4474 14.1673C17.9703 14.1673 19.2369 15.4551 19.2369 17.0841Z" stroke="black" stroke-opacity="0.56"/>
</svg>
