<svg width="22" height="22" viewBox="0 0 22 22" fill="none" xmlns="http://www.w3.org/2000/svg">
<g clip-path="url(#clip0)">
<path d="M11.2165 22.0004C11.1437 22.0004 11.0708 22.0004 10.9975 22.0001C9.27303 22.0043 7.67966 21.9605 6.1301 21.8662C4.70944 21.7797 3.41266 21.2888 2.37973 20.4465C1.38306 19.6338 0.702438 18.5349 0.356842 17.1807C0.0560608 16.0018 0.0401154 14.8445 0.0248413 13.7251C0.0137634 12.9219 0.00234985 11.9702 0 11.0024C0.00234985 10.0306 0.0137634 9.07892 0.0248413 8.27577C0.0401154 7.15657 0.0560608 5.99927 0.356842 4.82015C0.702438 3.46596 1.38306 2.36707 2.37973 1.55435C3.41266 0.712097 4.70944 0.221145 6.13026 0.134704C7.67982 0.0405419 9.27353 -0.00343392 11.0017 0.000762255C12.7266 -0.00293037 14.3195 0.0405419 15.8691 0.134704C17.2897 0.221145 18.5865 0.712097 19.6194 1.55435C20.6163 2.36707 21.2967 3.46596 21.6423 4.82015C21.9431 5.9991 21.959 7.15657 21.9743 8.27577C21.9854 9.07892 21.997 10.0306 21.9992 10.9984V11.0024C21.997 11.9702 21.9854 12.9219 21.9743 13.7251C21.959 14.8443 21.9433 16.0016 21.6423 17.1807C21.2967 18.5349 20.6163 19.6338 19.6194 20.4465C18.5865 21.2888 17.2897 21.7797 15.8691 21.8662C14.3851 21.9565 12.8607 22.0004 11.2165 22.0004ZM10.9975 20.2813C12.6939 20.2854 14.2515 20.2426 15.7647 20.1506C16.8389 20.0853 17.7703 19.7367 18.5333 19.1145C19.2386 18.5393 19.7243 17.7457 19.9769 16.7557C20.2274 15.7743 20.2418 14.7206 20.2557 13.7016C20.2666 12.9038 20.2781 11.9588 20.2804 11.0004C20.2781 10.0419 20.2666 9.09705 20.2557 8.29927C20.2418 7.28027 20.2274 6.22653 19.9769 5.24497C19.7243 4.25501 19.2386 3.46143 18.5333 2.88622C17.7703 2.26418 16.8389 1.91556 15.7647 1.85027C14.2515 1.75812 12.6939 1.71565 11.0015 1.71934C9.30542 1.71532 7.74763 1.75812 6.2345 1.85027C5.16028 1.91556 4.2289 2.26418 3.46587 2.88622C2.76057 3.46143 2.27483 4.25501 2.02222 5.24497C1.77179 6.22653 1.75735 7.28011 1.74342 8.29927C1.73251 9.09772 1.7211 10.0432 1.71875 11.0024C1.7211 11.9575 1.73251 12.9031 1.74342 13.7016C1.75735 14.7206 1.77179 15.7743 2.02222 16.7557C2.27483 17.7457 2.76057 18.5393 3.46587 19.1145C4.2289 19.7365 5.16028 20.0851 6.2345 20.1504C7.74763 20.2426 9.30576 20.2855 10.9975 20.2813ZM10.9565 16.3715C7.99504 16.3715 5.58543 13.9621 5.58543 11.0004C5.58543 8.03877 7.99504 5.62933 10.9565 5.62933C13.9182 5.62933 16.3276 8.03877 16.3276 11.0004C16.3276 13.9621 13.9182 16.3715 10.9565 16.3715ZM10.9565 7.34808C8.9427 7.34808 7.30418 8.9866 7.30418 11.0004C7.30418 13.0143 8.9427 14.6528 10.9565 14.6528C12.9705 14.6528 14.6089 13.0143 14.6089 11.0004C14.6089 8.9866 12.9705 7.34808 10.9565 7.34808ZM16.9292 3.91058C16.2173 3.91058 15.6401 4.48764 15.6401 5.19965C15.6401 5.91165 16.2173 6.48871 16.9292 6.48871C17.6412 6.48871 18.2182 5.91165 18.2182 5.19965C18.2182 4.48764 17.6412 3.91058 16.9292 3.91058Z" fill="white"/>
</g>
<defs>
<clipPath id="clip0">
<rect width="22" height="22" fill="white"/>
</clipPath>
</defs>
</svg>
