<svg width="28" height="28" viewBox="0 0 28 28" fill="none" xmlns="http://www.w3.org/2000/svg">
<g clip-path="url(#clip0)">
<path d="M14.2756 28.0004C14.1829 28.0004 14.0901 28.0004 13.9968 28C11.802 28.0053 9.77411 27.9496 7.80194 27.8295C5.99384 27.7195 4.34338 27.0947 3.02875 26.0227C1.76025 24.9883 0.894012 23.5898 0.454163 21.8662C0.0713501 20.3657 0.0510559 18.8928 0.0316162 17.4682C0.0175171 16.446 0.00299072 15.2347 0 14.003C0.00299072 12.7661 0.0175171 11.5549 0.0316162 10.5327C0.0510559 9.10823 0.0713501 7.6353 0.454163 6.1346C0.894012 4.41109 1.76025 3.0125 3.02875 1.97813C4.34338 0.906172 5.99384 0.281324 7.80215 0.171308C9.77432 0.0514657 11.8027 -0.00450361 14.0021 0.000836975C16.1975 -0.00386273 18.2248 0.0514657 20.197 0.171308C22.0051 0.281324 23.6555 0.906172 24.9702 1.97813C26.2389 3.0125 27.1049 4.41109 27.5448 6.1346C27.9276 7.63509 27.9479 9.10823 27.9673 10.5327C27.9814 11.5549 27.9962 12.7661 27.9989 13.9979C27.9962 15.2347 27.9814 16.446 27.9673 17.4682C27.9592 18.0723 27.4602 18.5551 26.8588 18.547C26.2547 18.5386 25.7719 18.0422 25.78 17.4383C25.7939 16.4221 25.8087 15.2187 25.8114 13.9979C25.8087 12.7821 25.7939 11.5788 25.78 10.5626C25.7623 9.26567 25.7439 7.92455 25.4252 6.67549C25.1037 5.41554 24.4855 4.40553 23.5878 3.67345C22.6169 2.88155 21.4313 2.43785 20.0641 2.35475C18.1383 2.23769 16.1559 2.18364 14.0021 2.18812C11.8433 2.183 9.86063 2.23769 7.93481 2.35475C6.56763 2.43785 5.38223 2.88155 4.4111 3.67323C3.51346 4.40532 2.89523 5.41533 2.57373 6.67549C2.255 7.92455 2.23663 9.26567 2.2189 10.5626C2.20502 11.5788 2.19049 12.7821 2.1875 14.003C2.19049 15.2187 2.20502 16.4221 2.2189 17.4383C2.23663 18.7352 2.255 20.0763 2.57373 21.3253C2.89523 22.5853 3.51346 23.5953 4.4111 24.3274C5.38223 25.1193 6.56763 25.563 7.93481 25.6461C9.86063 25.7632 11.8437 25.8178 13.997 25.8125C16.1561 25.8176 18.1383 25.7632 20.0641 25.6461C21.4313 25.563 22.6167 25.1193 23.5878 24.3274C24.2345 23.8 24.7397 23.1232 25.0894 22.3157C25.3295 21.7616 25.9734 21.5067 26.5277 21.7468C27.0821 21.9869 27.3367 22.6308 27.0968 23.1851C26.6065 24.3171 25.8911 25.2718 24.9702 26.0227C23.6555 27.0949 22.0051 27.7195 20.197 27.8295C18.3083 27.9445 16.3682 28.0004 14.2756 28.0004ZM20.7806 14.0004C20.7806 10.231 17.7141 7.16448 13.9447 7.16448C10.1755 7.16448 7.10873 10.231 7.10873 14.0004C7.10873 17.7698 10.1755 20.8364 13.9447 20.8364C17.7141 20.8364 20.7806 17.7698 20.7806 14.0004ZM18.5931 14.0004C18.5931 16.5635 16.5079 18.6489 13.9447 18.6489C11.3816 18.6489 9.29623 16.5635 9.29623 14.0004C9.29623 11.4374 11.3816 9.35198 13.9447 9.35198C16.5079 9.35198 18.5931 11.4374 18.5931 14.0004ZM21.5462 4.97698C20.6403 4.97698 19.9056 5.71141 19.9056 6.6176C19.9056 7.52379 20.6403 8.25823 21.5462 8.25823C22.4524 8.25823 23.1869 7.52379 23.1869 6.6176C23.1869 5.71141 22.4524 4.97698 21.5462 4.97698Z" fill="white"/>
</g>
<defs>
<clipPath id="clip0">
<rect width="28" height="28" fill="white"/>
</clipPath>
</defs>
</svg>
