<svg width="42" height="42" viewBox="0 0 42 42" fill="none" xmlns="http://www.w3.org/2000/svg">
<g clip-path="url(#clip0)">
<path d="M21.4134 42.0004C21.2743 42.0004 21.1352 42.0004 20.9952 41.9998C17.703 42.0078 14.6612 41.9241 11.7029 41.7441C8.99075 41.579 6.51508 40.6418 4.54312 39.0338C2.64038 37.4823 1.34102 35.3844 0.681244 32.7991C0.107025 30.5484 0.0765839 28.339 0.0474243 26.202C0.0262756 24.6687 0.00448608 22.8519 0 21.0042C0.00448608 19.1489 0.0262756 17.332 0.0474243 15.7988C0.0765839 13.6621 0.107025 11.4527 0.681244 9.20166C1.34102 6.61639 2.64038 4.5185 4.54312 2.96696C6.51508 1.35901 8.99075 0.421742 11.7032 0.256718C14.6615 0.0769544 17.704 -0.00699955 21.0032 0.00101132C24.2963 -0.00603824 27.3372 0.0769544 30.2955 0.256718C33.0076 0.421742 35.4833 1.35901 37.4553 2.96696C39.3583 4.5185 40.6574 6.61639 41.3172 9.20166C41.8914 11.4524 41.9218 13.6621 41.951 15.7988C41.9721 17.332 41.9942 19.1489 41.9984 20.9965C41.9942 22.8519 41.9721 24.6687 41.951 26.202C41.9388 27.1082 41.1903 27.8324 40.2882 27.8202C39.382 27.8077 38.6579 27.063 38.67 26.1571C38.6909 24.6328 38.713 22.8278 38.7171 20.9965C38.713 19.1729 38.6909 17.3679 38.67 15.8436C38.6434 13.8983 38.6159 11.8866 38.1378 10.013C37.6555 8.12307 36.7282 6.60806 35.3817 5.50993C33.9254 4.32207 32.147 3.65653 30.0962 3.53188C27.2075 3.35628 24.2338 3.27521 21.0032 3.28194C17.7649 3.27425 14.7909 3.35628 11.9022 3.53188C9.85144 3.65653 8.07335 4.32207 6.61665 5.50961C5.27019 6.60774 4.34285 8.12275 3.8606 10.013C3.38251 11.8866 3.35495 13.8983 3.32835 15.8436C3.30753 17.3679 3.28574 19.1729 3.28125 21.0042C3.28574 22.8278 3.30753 24.6328 3.32835 26.1571C3.35495 28.1025 3.38251 30.1142 3.8606 31.9878C4.34285 33.8777 5.27019 35.3927 6.61665 36.4908C8.07335 37.6787 9.85144 38.3442 11.9022 38.4689C14.7909 38.6445 17.7655 38.7265 20.9955 38.7185C24.2341 38.7262 27.2075 38.6445 30.0962 38.4689C32.147 38.3442 33.925 37.6787 35.3817 36.4908C36.3517 35.6997 37.1095 34.6846 37.6341 33.4733C37.9942 32.6421 38.96 32.2598 39.7916 32.62C40.6231 32.9802 41.0051 33.946 40.6452 34.7775C39.9098 36.4755 38.8367 37.9075 37.4553 39.0338C35.4833 40.6421 33.0076 41.579 30.2955 41.7441C27.4625 41.9164 24.5523 42.0004 21.4134 42.0004ZM31.1709 21.0004C31.1709 15.3463 26.5711 10.7465 20.917 10.7465C15.2633 10.7465 10.6631 15.3463 10.6631 21.0004C10.6631 26.6545 15.2633 31.2543 20.917 31.2543C26.5711 31.2543 31.1709 26.6545 31.1709 21.0004ZM27.8897 21.0004C27.8897 24.845 24.7619 27.973 20.917 27.973C17.0724 27.973 13.9444 24.845 13.9444 21.0004C13.9444 17.1558 17.0724 14.0277 20.917 14.0277C24.7619 14.0277 27.8897 17.1558 27.8897 21.0004ZM32.3194 7.46522C30.9604 7.46522 29.8584 8.56687 29.8584 9.92616C29.8584 11.2854 30.9604 12.3871 32.3194 12.3871C33.6786 12.3871 34.7803 11.2854 34.7803 9.92616C34.7803 8.56687 33.6786 7.46522 32.3194 7.46522Z" fill="black"/>
</g>
<defs>
<clipPath id="clip0">
<rect width="42" height="42" fill="white"/>
</clipPath>
</defs>
</svg>
