<svg width="27" height="27" viewBox="0 0 27 27" fill="none" xmlns="http://www.w3.org/2000/svg">
<path d="M11.2307 5.29539C11.5678 4.97435 12.1023 4.987 12.4234 5.3245C12.7448 5.662 12.7313 6.1961 12.3943 6.51756L5.92186 12.6563H22.7812C23.247 12.6563 23.625 13.0343 23.625 13.5C23.625 13.9658 23.247 14.3438 22.7812 14.3438H5.94886L12.3943 20.4829C12.7318 20.8044 12.7448 21.3385 12.4234 21.676C12.2576 21.8498 12.0352 21.9375 11.8125 21.9375C11.6032 21.9375 11.394 21.8603 11.2307 21.7046L3.86944 14.6931C3.5505 14.3746 3.375 13.951 3.375 13.5C3.375 13.049 3.5505 12.6255 3.8842 12.2926L11.2307 5.29539Z" fill="#232C65" fill-opacity="0.65"/>
</svg>
