<svg width="22" height="22" viewBox="0 0 22 22" fill="none" xmlns="http://www.w3.org/2000/svg">
<g clip-path="url(#clip0)">
<path d="M6.87534 18.1758H3.86752V8.46484H6.87534V18.1758ZM7.17545 5.37093C7.17545 4.39859 6.38657 3.60938 5.41473 3.60938C4.43921 3.60938 3.65234 4.39859 3.65234 5.37093C3.65234 6.3436 4.43921 7.13281 5.41473 7.13281C6.38657 7.13281 7.17545 6.3436 7.17545 5.37093ZM18.1328 12.8332C18.1328 10.2264 17.5821 8.29297 14.5369 8.29297C13.0736 8.29297 12.0913 9.02478 11.6904 9.7858H11.6875V8.46484H8.76562V18.1758H11.6875V13.3542C11.6875 12.0915 12.0089 10.8682 13.5741 10.8682C15.118 10.8682 15.168 12.3122 15.168 13.4344V18.1758H18.1328V12.8332ZM22 19.4219V2.57812C22 1.15646 20.8435 0 19.4219 0H2.57812C1.15646 0 0 1.15646 0 2.57812V19.4219C0 20.8435 1.15646 22 2.57812 22H19.4219C20.8435 22 22 20.8435 22 19.4219ZM19.4219 1.71875C19.8957 1.71875 20.2812 2.10429 20.2812 2.57812V19.4219C20.2812 19.8957 19.8957 20.2812 19.4219 20.2812H2.57812C2.10429 20.2812 1.71875 19.8957 1.71875 19.4219V2.57812C1.71875 2.10429 2.10429 1.71875 2.57812 1.71875H19.4219Z" fill="white"/>
</g>
<defs>
<clipPath id="clip0">
<rect width="22" height="22" fill="white"/>
</clipPath>
</defs>
</svg>
