<svg width="45" height="45" viewBox="0 0 45 45" fill="none" xmlns="http://www.w3.org/2000/svg">
<g clip-path="url(#clip0)">
<path d="M44.4369 19.7214L42.6404 19.0297C40.0274 18.0237 37.7034 16.3509 35.9198 14.1923C34.3012 12.2335 31.9156 11.1101 29.3747 11.1101C27.0662 11.1101 24.8281 12.0677 23.234 13.7373L22.5001 14.5059L21.7662 13.7373C20.172 12.0677 17.9338 11.1101 15.6255 11.1101C13.0845 11.1101 10.6989 12.2335 9.08034 14.1923C7.29678 16.3509 4.97286 18.0237 2.3597 19.0297L0.563222 19.7214C0.167978 19.8736 -0.0624703 20.2859 0.0148733 20.7022C0.0923048 21.1185 0.455556 21.4205 0.879013 21.4205C2.18507 21.4205 3.76182 23.0912 5.58757 25.0258C9.11417 28.7626 13.943 33.8787 22.4833 33.8898C22.4851 33.8898 22.4872 33.8898 22.489 33.8898H22.511C22.5128 33.8898 22.5148 33.8898 22.5167 33.8898C31.057 33.8787 35.8858 28.7626 39.4124 25.0258C41.2381 23.0912 42.8149 21.4205 44.121 21.4205C44.5444 21.4205 44.9077 21.1185 44.9851 20.7022C45.0626 20.286 44.8322 19.8736 44.4369 19.7214ZM38.1342 23.8193C34.6406 27.5211 30.2927 32.1275 22.5001 32.1321C14.7074 32.1276 10.3595 27.5211 6.86594 23.8193C6.1179 23.0268 5.42383 22.292 4.75155 21.6666C7.31488 21.2293 11.1147 20.9066 13.9906 22.0576C18.1345 23.7162 21.2973 23.899 22.4895 23.899C22.4966 23.899 22.5034 23.899 22.5104 23.899C23.7029 23.899 26.8659 23.7161 31.0094 22.0576C33.8663 20.9141 37.6076 21.2129 40.2491 21.666C39.5768 22.2915 38.8824 23.0266 38.1342 23.8193ZM30.3563 20.4256C26.9467 21.7903 24.2416 22.0779 22.9522 22.1294C22.9468 22.1293 22.9415 22.1293 22.936 22.1293H22.0641C22.0592 22.1293 22.0544 22.1293 22.0495 22.1294C20.7595 22.078 18.054 21.7906 14.6438 20.4255C11.4957 19.1655 7.50481 19.4419 4.73573 19.888C6.9199 18.7684 8.86685 17.2106 10.4355 15.3122C11.719 13.7589 13.6107 12.868 15.6255 12.868C17.456 12.868 19.2309 13.6273 20.4949 14.9513L21.8644 16.3856C22.0303 16.5593 22.26 16.6576 22.5001 16.6576C22.7402 16.6576 22.9699 16.5593 23.1357 16.3856L24.5052 14.9513C25.7693 13.6273 27.5441 12.868 29.3746 12.868C31.3895 12.868 33.2812 13.7589 34.5646 15.3121C36.1329 17.2101 38.079 18.7675 40.2625 19.887C37.4198 19.4271 33.4835 19.1739 30.3563 20.4256Z" fill="white"/>
<path d="M33.823 16.8288C32.7111 15.483 31.072 14.7112 29.3263 14.7112C28.841 14.7112 28.4474 15.1047 28.4474 15.5901C28.4474 16.0755 28.841 16.4691 29.3263 16.4691C30.546 16.4691 31.691 17.0083 32.4679 17.9485C32.6418 18.1589 32.8929 18.2677 33.146 18.2677C33.3432 18.2677 33.5415 18.2017 33.7054 18.0662C34.0795 17.757 34.1322 17.2031 33.823 16.8288Z" fill="white"/>
<path d="M19.4393 28.2068C17.5272 27.9337 15.8779 27.2239 14.397 26.0371C14.0182 25.7336 13.4652 25.7945 13.1615 26.1732C12.858 26.552 12.9189 27.1052 13.2977 27.4087C15.0309 28.7977 16.9585 29.6279 19.1907 29.9469C19.2328 29.9529 19.2747 29.9558 19.3162 29.9558C19.7465 29.9558 20.1225 29.6394 20.1851 29.2011C20.2538 28.7207 19.9199 28.2756 19.4393 28.2068Z" fill="white"/>
<path d="M22.8326 28.6917L22.7891 28.6855C22.308 28.6167 21.8632 28.9506 21.7946 29.4312C21.7259 29.9116 22.0598 30.3569 22.5402 30.4256L22.5837 30.4319C22.6259 30.4378 22.6678 30.4408 22.7093 30.4408C23.1396 30.4408 23.5156 30.1245 23.5782 29.6862C23.6469 29.2057 23.3131 28.7605 22.8326 28.6917Z" fill="white"/>
</g>
<defs>
<clipPath id="clip0">
<rect width="45" height="45" fill="white"/>
</clipPath>
</defs>
</svg>
