<svg width="45" height="45" viewBox="0 0 45 45" fill="none" xmlns="http://www.w3.org/2000/svg">
<path d="M36.4286 28.771L31.5836 31.9753C30.9708 30.9268 29.8179 30.2284 28.5332 30.2284H24.2547C23.3336 30.2284 22.902 29.5596 22.4698 29.2489C19.1626 26.3815 14.1748 26.3815 10.8693 29.2472L9.93507 30.0527H0.878906C0.393448 30.0527 0 30.4461 0 30.9316V41.4781C0 41.9636 0.393448 42.357 0.878906 42.357H10.0037L25.752 44.9817C25.984 45.0205 26.2226 44.9645 26.4139 44.8252L44.6388 31.5461C45.0295 31.2611 45.1167 30.7139 44.8338 30.3215C42.9044 27.6463 39.215 26.9634 36.4286 28.771ZM25.6771 43.1872L10.2211 40.6112C10.1733 40.6033 10.1249 40.5992 10.0765 40.5992H1.75781V31.8105H10.2619C10.7951 31.8105 10.9468 31.4321 12.019 30.5769C14.6695 28.2787 18.6675 28.2787 21.3183 30.5773C21.6874 30.8258 22.5508 31.9862 24.2547 31.9862H28.5332C29.4873 31.9862 30.291 32.7416 30.291 33.6957C30.291 34.6432 29.5024 35.414 28.5332 35.414H17.9863C17.5012 35.414 17.1074 35.8074 17.1074 36.2929C17.1074 36.778 17.5012 37.1718 17.9863 37.1718H28.5332C30.4445 37.1718 32.0049 35.6553 32.0478 33.7753L37.3916 30.2415C39.1323 29.1123 41.368 29.3406 42.8264 30.6916L25.6771 43.1872Z" fill="black" fill-opacity="0.56"/>
<path d="M28.6516 17.2212C28.6516 17.7066 28.2582 18.1001 27.7727 18.1001C27.2876 18.1001 26.8938 17.7066 26.8938 17.2212C26.8938 16.7357 27.2876 16.3423 27.7727 16.3423C28.2582 16.3423 28.6516 16.7357 28.6516 17.2212Z" fill="black" fill-opacity="0.56"/>
<path d="M17.1385 21.6153H38.2319C38.7174 21.6153 39.1108 21.2218 39.1108 20.7367V17.3062L41.7726 3.6842C41.8406 3.33607 41.6926 2.98107 41.3973 2.78435C41.1021 2.58762 40.7176 2.58762 40.4223 2.78435L33.2434 7.57027L28.4578 0.391388C28.2948 0.146942 28.0204 0 27.7266 0C27.4327 0 27.1584 0.146942 26.9953 0.391388L22.2094 7.56992L15.0308 2.78435C14.7363 2.58797 14.3531 2.58728 14.0578 2.78263C13.7629 2.97798 13.6139 3.33126 13.6799 3.67905L16.2596 17.3035V20.7367C16.2596 21.2218 16.653 21.6153 17.1385 21.6153ZM21.9656 9.52034C22.3697 9.78951 22.9152 9.68033 23.1844 9.27658L27.7266 2.46334L32.2687 9.27658C32.5379 9.68033 33.0834 9.78951 33.4872 9.52034L39.643 5.4166L37.5082 16.3422H31.728C31.2425 16.3422 30.8491 16.7356 30.8491 17.2211C30.8491 17.7065 31.2425 18.1 31.728 18.1H37.353V19.8578H18.0174V18.1H23.8182C24.3036 18.1 24.6971 17.7065 24.6971 17.2211C24.6971 16.7356 24.3036 16.3422 23.8182 16.3422H17.8667L15.7957 5.40699L21.9656 9.52034Z" fill="black" fill-opacity="0.56"/>
</svg>
