<svg width="45" height="45" viewBox="0 0 45 45" fill="none" xmlns="http://www.w3.org/2000/svg">
<g clip-path="url(#clip0)">
<path d="M44.8477 21.3498L37.7909 10.9852C36.3152 8.81783 34.1247 7.19211 31.6227 6.40751C29.1206 5.62309 26.394 5.70676 23.945 6.64359L17.5014 9.10813C17.048 9.28154 16.8211 9.78955 16.9944 10.2429C17.1679 10.6962 17.676 10.9229 18.1293 10.7498L24.5728 8.2853C28.8955 6.63225 33.7334 8.14907 36.338 11.9745L40.6724 18.3405L32.894 12.8621C31.2638 11.7139 29.1637 11.4126 27.2763 12.0563L3.87242 20.038C3.05784 20.3162 2.16241 19.8813 1.87676 19.0692C1.51114 18.0299 2.03084 16.9073 3.05995 16.5137L11.1129 13.4336C11.5663 13.2602 11.7931 12.7522 11.6198 12.2988C11.4463 11.8454 10.9381 11.6187 10.485 11.7919L2.43197 14.8721C0.506895 15.6084 -0.465267 17.7082 0.218524 19.6525C0.822687 21.3701 2.71621 22.2896 4.43975 21.7016L27.8438 13.72C29.2004 13.2573 30.71 13.4738 31.882 14.2992L43.6154 22.5631C43.7681 22.6707 43.9451 22.7234 44.1212 22.7234C44.3455 22.7234 44.5684 22.6378 44.7379 22.4709C45.0405 22.1728 45.0868 21.701 44.8477 21.3498Z" fill="white"/>
<path d="M15.1469 10.5661C14.9834 10.4018 14.7566 10.3086 14.5256 10.3086C14.2944 10.3086 14.0676 10.4018 13.9042 10.5661C13.7408 10.7296 13.6467 10.9556 13.6467 11.1874C13.6467 11.4186 13.7408 11.6453 13.9042 11.8087C14.0677 11.9722 14.2945 12.0662 14.5256 12.0662C14.7567 12.0662 14.9835 11.9722 15.1469 11.8087C15.3103 11.6452 15.4044 11.4185 15.4044 11.1874C15.4044 10.9554 15.3103 10.7296 15.1469 10.5661Z" fill="white"/>
<path d="M37.9209 29.7684L37.8876 29.7581C36.8296 29.4297 35.919 28.7719 35.2767 27.8833C35.9362 27.3519 36.572 26.7834 37.1793 26.1761C37.5225 25.8329 37.5225 25.2764 37.1793 24.9331C36.8362 24.59 36.2797 24.59 35.9365 24.9331C32.4897 28.3799 28.0871 30.5232 23.3264 31.1164C23.2945 31.1186 23.263 31.1223 23.2321 31.1278C22.3659 31.2319 21.4882 31.2853 20.6023 31.2854C20.6019 31.2854 20.6014 31.2853 20.6009 31.2853C20.6004 31.2853 20.6 31.2854 20.5995 31.2854C19.7135 31.2854 18.8359 31.2319 17.9696 31.1278C17.9387 31.1222 17.9073 31.1185 17.8753 31.1164C13.1146 30.5232 8.71197 28.3799 5.26523 24.9331C4.92202 24.5901 4.36558 24.59 4.02237 24.9331C3.67915 25.2763 3.67915 25.8328 4.02237 26.1761C4.62969 26.7834 5.2655 27.352 5.92494 27.8833C5.28281 28.7719 4.37235 29.4298 3.3152 29.7577L3.28074 29.7684C2.81694 29.9116 2.55714 30.4036 2.7004 30.8674C2.81694 31.2448 3.16455 31.4871 3.53976 31.4871C3.62571 31.4871 3.71308 31.4744 3.79939 31.4478L3.83498 31.4368C5.25073 30.9974 6.47013 30.1195 7.33357 28.9339C7.63416 29.1411 7.93888 29.3409 8.24781 29.5332C7.81864 30.8798 6.81414 31.968 5.4818 32.4966L5.20969 32.6044C4.75845 32.7834 4.53785 33.2942 4.71671 33.7453C4.85346 34.0903 5.18411 34.3004 5.53383 34.3004C5.64167 34.3004 5.75127 34.2803 5.85762 34.2382L6.12999 34.1302C7.83956 33.4519 9.15713 32.1022 9.80111 30.4183C10.1387 30.5939 10.4802 30.761 10.8255 30.9195C10.7248 32.4266 9.8534 33.7719 8.50068 34.4776L8.44829 34.505C8.01789 34.7294 7.8509 35.2601 8.07519 35.6905C8.2319 35.9912 8.53812 36.1633 8.85514 36.1633C8.99199 36.1633 9.13094 36.1312 9.26067 36.0635L9.31331 36.0361C11.0391 35.1357 12.2065 33.4944 12.5125 31.6151C12.8852 31.7518 13.2614 31.8792 13.6412 31.9967C13.5909 33.3908 13.0504 34.7157 12.104 35.7481C11.776 36.1059 11.8002 36.6617 12.1581 36.9898C12.3268 37.1445 12.5395 37.2208 12.7516 37.2208C12.9894 37.2208 13.2265 37.1248 13.3997 36.9358C14.5386 35.6932 15.2257 34.1247 15.3731 32.4607C15.8782 32.5751 16.3884 32.6721 16.9028 32.753C16.7889 34.1031 16.3746 35.416 15.6853 36.589L15.567 36.7904C15.3212 37.2089 15.4612 37.7474 15.8797 37.9934C16.0196 38.0754 16.1728 38.1146 16.3241 38.1146C16.6256 38.1146 16.919 37.9593 17.0827 37.6805L17.2009 37.4794C18.0132 36.097 18.5057 34.5517 18.649 32.9616C19.0051 32.9908 19.3629 33.0118 19.722 33.025V38.2464C19.722 38.7317 20.1155 39.1252 20.6008 39.1252C21.0861 39.1252 21.4796 38.7316 21.4796 38.2464V33.025C21.8388 33.0118 22.1965 32.9908 22.5526 32.9616C22.6959 34.5515 23.1883 36.097 24.0006 37.4792L24.1189 37.6805C24.2826 37.9593 24.5761 38.1146 24.8775 38.1146C25.0287 38.1146 25.182 38.0754 25.3219 37.9934C25.7404 37.7474 25.8803 37.2089 25.6346 36.7904L25.5162 36.5889C24.827 35.416 24.4127 34.103 24.2988 32.753C24.8132 32.672 25.3234 32.5751 25.8285 32.4607C25.9758 34.1246 26.663 35.6932 27.8019 36.9358C27.9752 37.1248 28.2122 37.2208 28.45 37.2208C28.6622 37.2208 28.8749 37.1444 29.0435 36.9898C29.4013 36.6618 29.4256 36.1059 29.0976 35.7481C28.1513 34.7157 27.6107 33.3906 27.5604 31.9967C27.9402 31.8792 28.3164 31.7519 28.6891 31.6151C28.9951 33.4945 30.1625 35.1358 31.8885 36.0362L31.9409 36.0635C32.0707 36.1312 32.2096 36.1633 32.3465 36.1633C32.6636 36.1633 32.9697 35.9911 33.1264 35.6905C33.3508 35.2601 33.1838 34.7293 32.7533 34.505L32.7012 34.4777C31.3482 33.772 30.4768 32.4266 30.3761 30.9195C30.7215 30.761 31.063 30.5939 31.4005 30.4183C32.0444 32.1022 33.362 33.4519 35.0717 34.1303L35.344 34.2383C35.4503 34.2804 35.5599 34.3004 35.6678 34.3004C36.0175 34.3004 36.3481 34.0901 36.4849 33.7454C36.6638 33.2942 36.4431 32.7834 35.9919 32.6045L35.7198 32.4966C34.3874 31.9679 33.3828 30.8797 32.9537 29.5331C33.2626 29.3409 33.5674 29.141 33.8679 28.9338C34.7314 30.1195 35.9509 30.9974 37.3677 31.437L37.4021 31.4477C37.4885 31.4744 37.5759 31.4871 37.6618 31.4871C38.0371 31.4871 38.3846 31.2447 38.5011 30.8673C38.6446 30.4036 38.3848 29.9116 37.9209 29.7684Z" fill="white"/>
</g>
<defs>
<clipPath id="clip0">
<rect width="45" height="45" fill="white"/>
</clipPath>
</defs>
</svg>
