<svg width="23" height="23" viewBox="0 0 23 23" fill="none" xmlns="http://www.w3.org/2000/svg">
<path d="M22.1016 10.6016H0.898438C0.402231 10.6016 0 11.0038 0 11.5C0 11.9962 0.402231 12.3984 0.898438 12.3984H22.1016C22.5978 12.3984 23 11.9962 23 11.5C23 11.0038 22.5978 10.6016 22.1016 10.6016Z" fill="white"/>
<path d="M22.1016 3.41406H0.898438C0.402231 3.41406 0 3.81629 0 4.3125C0 4.80871 0.402231 5.21094 0.898438 5.21094H22.1016C22.5978 5.21094 23 4.80871 23 4.3125C23 3.81629 22.5978 3.41406 22.1016 3.41406Z" fill="white"/>
<path d="M22.1016 17.7891H0.898438C0.402231 17.7891 0 18.1913 0 18.6875C0 19.1837 0.402231 19.5859 0.898438 19.5859H22.1016C22.5978 19.5859 23 19.1837 23 18.6875C23 18.1913 22.5978 17.7891 22.1016 17.7891Z" fill="white"/>
</svg>
