<svg width="127" height="33" viewBox="0 0 127 33" fill="none" xmlns="http://www.w3.org/2000/svg">
<g clip-path="url(#clip0)">
<path d="M98.1731 8.73877H91.3192C90.916 8.73877 90.5128 9.14194 90.3112 9.54512L87.489 27.2848C87.489 27.688 87.6906 27.8896 88.0938 27.8896H91.7223C92.1255 27.8896 92.3271 27.688 92.3271 27.2848L93.1335 22.2451C93.1335 21.8419 93.5366 21.4388 94.1414 21.4388H96.3588C100.995 21.4388 103.616 19.2213 104.221 14.7864C104.624 12.9721 104.221 11.3594 103.414 10.3515C102.205 9.34353 100.391 8.73877 98.1731 8.73877ZM98.9795 15.3912C98.5763 17.8102 96.762 17.8102 94.9477 17.8102H93.7382L94.5446 13.1737C94.5446 12.9721 94.7462 12.7705 95.1493 12.7705H95.5525C96.762 12.7705 97.9715 12.7705 98.5763 13.5769C98.9795 13.7785 98.9795 14.3832 98.9795 15.3912Z" fill="#139AD6"/>
<path d="M48.7842 8.73877H41.9303C41.5271 8.73877 41.1239 9.14194 40.9223 9.54512L38.1001 27.2848C38.1001 27.688 38.3017 27.8896 38.7049 27.8896H41.9303C42.3334 27.8896 42.7366 27.4864 42.9382 27.0832L43.7445 22.2451C43.7445 21.8419 44.1477 21.4388 44.7525 21.4388H46.9699C51.6064 21.4388 54.2271 19.2213 54.8318 14.7864C55.235 12.9721 54.8318 11.3594 54.0255 10.3515C52.816 9.34353 51.2033 8.73877 48.7842 8.73877ZM49.5906 15.3912C49.1874 17.8102 47.3731 17.8102 45.5588 17.8102H44.5509L45.3572 13.1737C45.3572 12.9721 45.5588 12.7705 45.962 12.7705H46.3652C47.5747 12.7705 48.7842 12.7705 49.389 13.5769C49.5906 13.7785 49.7922 14.3832 49.5906 15.3912Z" fill="white"/>
<path d="M69.5479 15.1898H66.3225C66.1209 15.1898 65.7178 15.3914 65.7178 15.593L65.5162 16.6009L65.3146 16.1977C64.5082 15.1898 63.0971 14.7866 61.4844 14.7866C57.8559 14.7866 54.6305 17.6088 54.0257 21.439C53.6225 23.4549 54.2273 25.2692 55.2352 26.4787C56.2432 27.6882 57.6543 28.0914 59.4686 28.0914C62.4924 28.0914 64.1051 26.2771 64.1051 26.2771L63.9035 27.285C63.9035 27.6882 64.1051 27.8898 64.5082 27.8898H67.532C67.9352 27.8898 68.3384 27.4866 68.54 27.0835L70.3543 15.7946C70.1527 15.593 69.7495 15.1898 69.5479 15.1898ZM64.9114 21.6406C64.5082 23.4549 63.0971 24.866 61.0813 24.866C60.0733 24.866 59.267 24.4628 58.8638 24.0596C58.4606 23.4549 58.259 22.6485 58.259 21.6406C58.4606 19.8263 60.0733 18.4152 61.8876 18.4152C62.8955 18.4152 63.5003 18.8184 64.1051 19.2215C64.7098 19.8263 64.9114 20.8342 64.9114 21.6406Z" fill="white"/>
<path d="M118.735 15.1898H115.51C115.308 15.1898 114.905 15.3914 114.905 15.593L114.703 16.6009L114.502 16.1977C113.695 15.1898 112.284 14.7866 110.671 14.7866C107.043 14.7866 103.817 17.6088 103.213 21.439C102.81 23.4549 103.414 25.2692 104.422 26.4787C105.43 27.6882 106.841 28.0914 108.656 28.0914C111.679 28.0914 113.292 26.2771 113.292 26.2771L113.09 27.285C113.09 27.6882 113.292 27.8898 113.695 27.8898H116.719C117.122 27.8898 117.525 27.4866 117.727 27.0835L119.541 15.7946C119.34 15.593 119.138 15.1898 118.735 15.1898ZM114.098 21.6406C113.695 23.4549 112.284 24.866 110.268 24.866C109.26 24.866 108.454 24.4628 108.051 24.0596C107.648 23.4549 107.446 22.6485 107.446 21.6406C107.648 19.8263 109.26 18.4152 111.075 18.4152C112.083 18.4152 112.687 18.8184 113.292 19.2215C114.098 19.8263 114.3 20.8342 114.098 21.6406Z" fill="#139AD6"/>
<path d="M87.0857 15.1899H83.6587C83.2555 15.1899 83.054 15.3915 82.8524 15.5931L78.4175 22.4471L76.4016 15.9963C76.2 15.5931 75.9984 15.3915 75.3936 15.3915H72.1682C71.7651 15.3915 71.5635 15.7947 71.5635 16.1979L75.192 26.882L71.7651 31.7201C71.5635 32.1233 71.7651 32.728 72.1682 32.728H75.3936C75.7968 32.728 75.9984 32.5264 76.2 32.3249L87.2873 16.3995C87.8921 15.7947 87.4889 15.1899 87.0857 15.1899Z" fill="white"/>
<path d="M122.565 9.34359L119.743 27.4864C119.743 27.8896 119.945 28.0912 120.348 28.0912H123.17C123.573 28.0912 123.976 27.688 124.178 27.2849L127 9.54517C127 9.142 126.798 8.94041 126.395 8.94041H123.17C122.968 8.73882 122.767 8.94041 122.565 9.34359Z" fill="#139AD6"/>
<path d="M23.1825 2.69102C21.7714 1.07832 19.1508 0.271973 15.5222 0.271973H5.44286C4.8381 0.271973 4.23333 0.876731 4.03175 1.48149L0 27.8894C0 28.4942 0.403175 28.8974 0.806349 28.8974H7.05556L8.66826 19.0196V19.4228C8.86984 18.818 9.4746 18.2132 10.0794 18.2132H13.1032C18.9492 18.2132 23.3841 15.7942 24.7952 9.14181C24.7952 8.94022 24.7952 8.73863 24.7952 8.53705C24.5937 8.53705 24.5937 8.53705 24.7952 8.53705C24.9968 5.91641 24.5937 4.30372 23.1825 2.69102Z" fill="white"/>
<path d="M24.5935 8.5376C24.5935 8.73918 24.5935 8.94077 24.5935 9.14236C23.1824 15.9963 18.7475 18.2138 12.9015 18.2138H9.87767C9.27291 18.2138 8.66814 18.8186 8.46656 19.4233L6.45068 31.7201C6.45068 32.1233 6.65227 32.5265 7.25703 32.5265H12.4983C13.1031 32.5265 13.7078 32.1233 13.7078 31.5186V31.317L14.7158 25.0678V24.6646C14.7158 24.0598 15.3205 23.6566 15.9253 23.6566H16.7316C21.7713 23.6566 25.8031 21.6408 26.811 15.5932C27.2142 13.1741 27.0126 10.9566 25.8031 9.54553C25.6015 9.14236 25.1983 8.73918 24.5935 8.5376Z" fill="#139AD6"/>
<path d="M23.1827 7.9324C22.9812 7.9324 22.7796 7.73081 22.578 7.73081C22.3764 7.73081 22.1748 7.73081 21.9732 7.52922C21.1669 7.32763 20.3605 7.32764 19.3526 7.32764H11.4907C11.2891 7.32764 11.0875 7.32763 10.8859 7.52922C10.4827 7.73081 10.2812 8.13398 10.2812 8.53716L8.66846 19.0197V19.4229C8.87004 18.8181 9.47481 18.2133 10.0796 18.2133H13.1034C18.9494 18.2133 23.3843 15.7943 24.7954 9.14192C24.7954 8.94033 24.7954 8.73875 24.997 8.53716C24.5939 8.33557 24.3923 8.13399 23.9891 8.13399C23.3843 7.9324 23.3843 7.9324 23.1827 7.9324Z" fill="#232C65"/>
</g>
<defs>
<clipPath id="clip0">
<rect width="127" height="33" fill="white"/>
</clipPath>
</defs>
</svg>
