<svg width="45" height="45" viewBox="0 0 45 45" fill="none" xmlns="http://www.w3.org/2000/svg">
<g clip-path="url(#clip0)">
<path d="M9.4043 16.6992C9.4043 23.9688 15.3184 29.8829 22.5879 29.8829C29.8574 29.8829 35.7715 23.9688 35.7715 16.6992C35.7715 9.42971 29.8574 3.51562 22.5879 3.51562C15.3184 3.51562 9.4043 9.42971 9.4043 16.6992ZM22.5879 5.27344C28.8882 5.27344 34.0137 10.3989 34.0137 16.6992C34.0137 22.9996 28.8882 28.125 22.5879 28.125C16.2876 28.125 11.1621 22.9996 11.1621 16.6992C11.1621 10.3989 16.2876 5.27344 22.5879 5.27344Z" fill="black" fill-opacity="0.56"/>
<path d="M14.4484 15.1322L17.8552 18.4889L17.0714 23.2065C17.0168 23.5351 17.1524 23.866 17.4219 24.0617C17.6911 24.2574 18.0478 24.2838 18.3434 24.1307L22.5879 21.9266L26.8321 24.1307C27.1253 24.2828 27.482 24.2591 27.7535 24.0617C28.0231 23.866 28.1587 23.5351 28.1041 23.2065L27.3203 18.4889L30.7271 15.1322C30.9643 14.8988 31.0491 14.5513 30.9461 14.2344C30.8431 13.9179 30.5702 13.6868 30.2409 13.637L25.513 12.9253L23.3738 8.64718C23.2251 8.34952 22.9206 8.16138 22.5879 8.16138C22.2549 8.16138 21.9507 8.34952 21.8017 8.64718L19.6624 12.9253L14.9345 13.637C14.6053 13.6865 14.3323 13.9179 14.2293 14.2344C14.1263 14.5513 14.2115 14.8988 14.4484 15.1322ZM20.3755 14.5956C20.6584 14.553 20.9029 14.3755 21.0309 14.1198L22.5879 11.0055L24.1449 14.1198C24.2729 14.3755 24.5174 14.553 24.8003 14.5956L28.2414 15.1137L25.7616 17.5564C25.558 17.7573 25.4646 18.0446 25.5113 18.3268L26.0819 21.7604L22.9927 20.1564C22.866 20.0905 22.7269 20.0575 22.5879 20.0575C22.4489 20.0575 22.3098 20.0905 22.1828 20.1564L19.0936 21.7604L19.6642 18.3268C19.7112 18.0446 19.6178 17.7573 19.4139 17.5564L16.9344 15.1137L20.3755 14.5956Z" fill="black" fill-opacity="0.56"/>
<path d="M23.4668 0.878908C23.4668 1.36437 23.0734 1.75782 22.5879 1.75782C22.1024 1.75782 21.709 1.36437 21.709 0.878908C21.709 0.393448 22.1024 0 22.5879 0C23.0734 0 23.4668 0.393448 23.4668 0.878908Z" fill="black" fill-opacity="0.56"/>
<path d="M18.4456 0.51804C11.0521 2.40529 5.88855 9.05923 5.88855 16.6992C5.88855 21.4443 7.8836 25.9154 11.3858 29.0818L6.09077 38.4137C5.92048 38.7141 5.94176 39.0863 6.14501 39.3651C6.34826 39.6442 6.6957 39.7784 7.03388 39.708L13.0472 38.4594L15.1607 44.415C15.2754 44.7391 15.5689 44.966 15.9115 44.9966C16.2542 45.0271 16.5827 44.8545 16.7527 44.5554L22.5878 34.2969L28.4226 44.5554C28.5798 44.8318 28.8723 44.9997 29.1861 44.9997C29.2119 44.9997 29.238 44.9986 29.2637 44.9966C29.6064 44.966 29.8999 44.7388 30.0149 44.415L32.1281 38.4594L38.1414 39.708C38.4792 39.7781 38.827 39.6438 39.0302 39.3651C39.2338 39.0863 39.2548 38.7141 39.0845 38.4137L33.7894 29.0818C37.2916 25.9154 39.2867 21.4443 39.2867 16.6992C39.2867 9.05923 34.1231 2.40529 26.73 0.51804C26.2593 0.397877 25.781 0.681805 25.6609 1.15216C25.5407 1.62251 25.8246 2.1011 26.295 2.22127C32.9095 3.90973 37.5292 9.8633 37.5292 16.6992C37.5292 25.019 30.7723 31.6406 22.5878 31.6406C14.3975 31.6406 7.64636 25.0135 7.64636 16.6992C7.64636 9.8633 12.2658 3.90973 18.8802 2.22127C19.3506 2.1011 19.6345 1.62251 19.5147 1.15216C19.3945 0.681805 18.9163 0.397877 18.4456 0.51804ZM16.1749 42.0165L14.4476 37.1493C14.3007 36.7352 13.8708 36.4932 13.4406 36.5824L8.57814 37.5921L12.7687 30.2066C15.2122 31.9829 18.1054 33.0651 21.1139 33.3329L16.1749 42.0165ZM31.7346 36.5824C31.3048 36.4932 30.8746 36.7352 30.7276 37.1493L29.0007 42.0165L24.0613 33.3329C27.0702 33.0651 29.9631 31.9829 32.4068 30.2066L36.5974 37.5921L31.7346 36.5824Z" fill="black" fill-opacity="0.56"/>
</g>
<defs>
<clipPath id="clip0">
<rect width="45" height="45" fill="white"/>
</clipPath>
</defs>
</svg>
