<svg width="25" height="26" viewBox="0 0 25 26" fill="none" xmlns="http://www.w3.org/2000/svg">
<path d="M14.6012 5.09931C14.2891 4.79015 13.7941 4.80234 13.4969 5.12734C13.1992 5.45234 13.2117 5.96665 13.5238 6.27621L19.5168 12.1876H3.90625C3.475 12.1876 3.125 12.5516 3.125 13.0001C3.125 13.4486 3.475 13.8126 3.90625 13.8126H19.4918L13.5238 19.7243C13.2113 20.0339 13.1992 20.5482 13.4969 20.8732C13.6504 21.0406 13.8562 21.1251 14.0625 21.1251C14.2563 21.1251 14.45 21.0507 14.6012 20.9008L21.4172 14.1489C21.7125 13.8422 21.875 13.4343 21.875 13.0001C21.875 12.5658 21.7125 12.1579 21.4035 11.8374L14.6012 5.09931Z" fill="white"/>
</svg>
