<svg width="22" height="22" viewBox="0 0 22 22" fill="none" xmlns="http://www.w3.org/2000/svg">
<g clip-path="url(#clip0)">
<path d="M10.9991 18.9919C10.9973 18.9919 10.9952 18.9919 10.9932 18.9919C10.3294 18.9873 4.46079 18.9338 2.7981 18.4841C1.63609 18.1718 0.718808 17.2555 0.405606 16.0933C-0.0294535 14.46 -0.00175869 11.3154 0.00126255 11.0643C-0.00159084 10.8144 -0.0296213 7.64374 0.404263 5.997C0.404767 5.99549 0.405102 5.99381 0.405606 5.9923C0.715284 4.84339 1.65321 3.89874 2.79524 3.58554C2.7981 3.5847 2.80112 3.58403 2.80397 3.58319C4.44786 3.15115 10.328 3.09828 10.9932 3.09375H11.0051C11.6707 3.09828 17.5549 3.15183 19.2023 3.60216C20.3613 3.91368 21.2779 4.82878 21.5919 5.98944C22.0433 7.63737 22.0015 10.8149 21.9969 11.0831C22.0001 11.3473 22.0265 14.4637 21.5939 16.1052C21.5936 16.1069 21.5931 16.1084 21.5928 16.1099C21.2794 17.2721 20.3623 18.1884 19.1989 18.5011C19.1974 18.5016 19.1957 18.5019 19.1942 18.5024C17.5505 18.9343 11.6702 18.9872 11.0051 18.9919C11.0031 18.9919 11.0011 18.9919 10.9991 18.9919ZM2.06561 6.43776C1.68359 7.89132 1.71968 11.0215 1.72002 11.053V11.0757C1.7086 11.9438 1.74872 14.4578 2.06578 15.6485C2.21953 16.2187 2.67188 16.6704 3.24558 16.8246C4.47237 17.1565 9.25215 17.2609 10.9991 17.2731C12.7506 17.2609 17.5374 17.1593 18.7551 16.8407C19.327 16.686 19.7778 16.2358 19.9326 15.665C20.25 14.4568 20.2898 11.9551 20.2782 11.0925C20.2782 11.0834 20.2782 11.0744 20.2784 11.0653C20.2941 10.1868 20.2631 7.64341 19.9341 6.44313C19.9338 6.44196 19.9334 6.44078 19.9333 6.43961C19.7788 5.86692 19.3263 5.41524 18.7526 5.26099C17.5377 4.92882 12.7502 4.82475 10.9991 4.8125C9.24879 4.82475 4.46666 4.92613 3.24524 5.24437C2.68245 5.40047 2.21986 5.86826 2.06561 6.43776ZM20.7629 15.8864H20.7634H20.7629ZM8.80853 14.5231V7.56234L14.8242 11.0428L8.80853 14.5231Z" fill="white"/>
</g>
<defs>
<clipPath id="clip0">
<rect width="22" height="22" fill="white"/>
</clipPath>
</defs>
</svg>
